<svg width="35" height="36" viewBox="0 0 35 36" fill="none" xmlns="http://www.w3.org/2000/svg">
<path fill-rule="evenodd" clip-rule="evenodd" d="M32.825 18C32.825 26.8996 25.8626 34 17.4125 34C8.96245 34 2 26.8996 2 18C2 9.10037 8.96245 2 17.4125 2C25.8626 2 32.825 9.10037 32.825 18ZM34.825 18C34.825 27.9411 27.0292 36 17.4125 36C7.79584 36 0 27.9411 0 18C0 8.05887 7.79584 0 17.4125 0C27.0292 0 34.825 8.05887 34.825 18ZM11.8756 18C11.8756 15.1617 14.1645 12.8723 17.0022 12.8723C19.8399 12.8723 22.1288 15.1617 22.1288 18C22.1288 20.8383 19.8399 23.1277 17.0022 23.1277C14.1645 23.1277 11.8756 20.8383 11.8756 18ZM13.6693 18C13.6693 19.8387 15.1684 21.3337 17.0022 21.3337C18.836 21.3337 20.3352 19.8387 20.3352 18C20.3352 16.1613 18.8405 14.6663 17.0022 14.6663C15.164 14.6663 13.6693 16.1613 13.6693 18ZM22.3385 13.8585C22.9989 13.8585 23.5343 13.3275 23.5343 12.6625C23.5343 12.002 22.9989 11.4665 22.3385 11.4665C21.6782 11.4665 21.1428 12.002 21.1428 12.6625C21.1428 13.323 21.6737 13.8585 22.3385 13.8585ZM25.3146 9.68582C26.488 10.8551 26.8539 12.2742 26.9297 13.8764C27.0234 15.5276 27.0234 20.4724 26.9297 22.1236C26.8494 23.7258 26.4835 25.1449 25.3146 26.3142C24.1456 27.4879 22.7267 27.8538 21.1249 27.9297C19.4741 28.0234 14.5259 28.0234 12.8751 27.9297C11.2733 27.8494 9.8589 27.4834 8.68544 26.3142C7.51199 25.1449 7.14612 23.7258 7.07027 22.1236C6.97658 20.4724 6.97658 15.5232 7.07027 13.8719C7.15059 12.2698 7.51199 10.8506 8.68544 9.68136C9.8589 8.5121 11.2777 8.14616 12.8751 8.07029C14.5259 7.97657 19.4741 7.97657 21.1249 8.07029C22.7267 8.15062 24.1456 8.51657 25.3146 9.68582ZM22.8963 25.7965C23.7752 25.4439 24.449 24.7701 24.797 23.8953C25.2447 22.77 25.2198 20.3083 25.2037 18.7126C25.201 18.4479 25.1985 18.207 25.1985 18C25.1985 17.793 25.201 17.5521 25.2037 17.2875C25.2198 15.6926 25.2447 13.2338 24.797 12.1047C24.4445 11.2255 23.7708 10.5516 22.8963 10.2035C21.7676 9.75808 19.2945 9.78181 17.6996 9.79711C17.4409 9.79959 17.2053 9.80185 17.0022 9.80185C16.7952 9.80185 16.5545 9.79941 16.2899 9.79673C14.6954 9.78057 12.2371 9.75566 11.1082 10.2035C10.2292 10.5561 9.55549 11.2299 9.20747 12.1047C8.76215 13.2336 8.78587 15.7072 8.80117 17.3024C8.80365 17.5612 8.80591 17.7969 8.80591 18C8.80591 18.207 8.80347 18.4479 8.80079 18.7125C8.78464 20.3074 8.75973 22.7662 9.20747 23.8953C9.55996 24.7745 10.2337 25.4484 11.1082 25.7965C12.2369 26.2419 14.7099 26.2182 16.3048 26.2029C16.5636 26.2004 16.7992 26.1981 17.0022 26.1981C17.2092 26.1981 17.45 26.2006 17.7145 26.2033C19.3091 26.2194 21.7673 26.2443 22.8963 25.7965Z" fill="white"/>
</svg>
