<svg width="40" height="40" viewBox="0 0 40 40" fill="none" xmlns="http://www.w3.org/2000/svg">
<g clip-path="url(#clip0_168_1742)">
<path d="M38.7579 30.1304L39.8694 32.3697C40.1763 32.988 39.9238 33.7381 39.3055 34.0451L34.191 36.6143C32.9372 37.2367 31.4132 36.7076 30.8169 35.4381L25.9124 25H15C13.7559 25 12.7011 24.0852 12.5251 22.8535C9.87758 4.32094 10.0297 5.47218 10 5C10 2.15953 12.3686 -0.127738 15.2384 0.0055437C17.8377 0.126247 19.9297 2.26375 19.9982 4.865C20.066 7.43789 18.1895 9.58554 15.732 9.94617L16.0968 12.5001H26.25C26.9404 12.5001 27.5 13.0597 27.5 13.7501V16.2501C27.5 16.9405 26.9404 17.5001 26.25 17.5001H16.8111L17.1683 20.0001H27.5C27.9746 20.0001 28.4395 20.1352 28.8402 20.3897C29.2408 20.6441 29.5608 21.0074 29.7627 21.437L34.256 31L37.0824 29.5665C37.7008 29.2595 38.4509 29.512 38.7579 30.1304ZM24.3248 27.5H22.4103C21.8019 31.7347 18.1503 35 13.75 35C8.92523 35 5 31.0748 5 26.25C5 23.0074 6.77297 20.1712 9.40031 18.6597C9.11031 16.6312 8.86562 14.9206 8.65906 13.4774C3.59031 15.505 0 20.4659 0 26.25C0 33.8318 6.1682 40 13.75 40C19.3648 40 24.2036 36.6166 26.3367 31.7819L24.3248 27.5Z" fill="black"/>
</g>
<defs>
<clipPath id="clip0_168_1742">
<rect width="40" height="40" fill="white"/>
</clipPath>
</defs>
</svg>
