<svg width="24" height="24" viewBox="0 0 24 24" fill="none" xmlns="http://www.w3.org/2000/svg">
<g clip-path="url(#clip0_185_794)">
<path fill-rule="evenodd" clip-rule="evenodd" d="M21 1.5H3C2.60218 1.5 2.22064 1.65804 1.93934 1.93934C1.65804 2.22064 1.5 2.60218 1.5 3V21C1.5 21.3978 1.65804 21.7794 1.93934 22.0607C2.22064 22.342 2.60218 22.5 3 22.5H21C21.3978 22.5 21.7794 22.342 22.0607 22.0607C22.342 21.7794 22.5 21.3978 22.5 21V3C22.5 2.60218 22.342 2.22064 22.0607 1.93934C21.7794 1.65804 21.3978 1.5 21 1.5ZM3 0C2.20435 0 1.44129 0.316071 0.87868 0.87868C0.316071 1.44129 0 2.20435 0 3L0 21C0 21.7956 0.316071 22.5587 0.87868 23.1213C1.44129 23.6839 2.20435 24 3 24H21C21.7956 24 22.5587 23.6839 23.1213 23.1213C23.6839 22.5587 24 21.7956 24 21V3C24 2.20435 23.6839 1.44129 23.1213 0.87868C22.5587 0.316071 21.7956 0 21 0L3 0Z" fill="#F1B620"/>
<path fill-rule="evenodd" clip-rule="evenodd" d="M7.75768 16.2416C7.89832 16.3822 8.08905 16.4612 8.28793 16.4612C8.4868 16.4612 8.67753 16.3822 8.81818 16.2416L14.9622 10.0976V14.2496C14.9622 14.4485 15.0412 14.6393 15.1818 14.7799C15.3225 14.9206 15.5133 14.9996 15.7122 14.9996C15.9111 14.9996 16.1019 14.9206 16.2425 14.7799C16.3832 14.6393 16.4622 14.4485 16.4622 14.2496V8.28711C16.4622 8.0882 16.3832 7.89743 16.2425 7.75678C16.1019 7.61613 15.9111 7.53711 15.7122 7.53711H9.74968C9.55076 7.53711 9.36 7.61613 9.21935 7.75678C9.07869 7.89743 8.99968 8.0882 8.99968 8.28711C8.99968 8.48602 9.07869 8.67679 9.21935 8.81744C9.36 8.95809 9.55076 9.03711 9.74968 9.03711H13.9017L7.75768 15.1811C7.61707 15.3218 7.53809 15.5125 7.53809 15.7114C7.53809 15.9102 7.61707 16.101 7.75768 16.2416V16.2416Z" fill="#F1B620"/>
</g>
<defs>
<clipPath id="clip0_185_794">
<rect width="24" height="24" fill="white"/>
</clipPath>
</defs>
</svg>
