<svg width="15" height="14" viewBox="0 0 15 14" fill="none" xmlns="http://www.w3.org/2000/svg">
<path fill-rule="evenodd" clip-rule="evenodd" d="M0.759766 6.99994C0.759704 6.25437 1.01841 5.53002 1.495 4.94134C1.9716 4.35266 2.63892 3.9332 3.39154 3.74923C4.14417 3.56525 4.93919 3.62725 5.65102 3.92543C6.36284 4.22361 6.95089 4.74097 7.32227 5.39577H12.7606C13.3476 5.39577 13.824 5.85311 13.824 6.41661V7.87494C13.824 7.99097 13.776 8.10225 13.6905 8.1843C13.6051 8.26635 13.4891 8.31244 13.3683 8.31244H12.0011V9.33327C12.0011 9.44931 11.9531 9.56059 11.8676 9.64263C11.7821 9.72468 11.6662 9.77077 11.5454 9.77077H10.0263C9.90539 9.77077 9.78948 9.72468 9.70401 9.64263C9.61854 9.56059 9.57053 9.44931 9.57053 9.33327V8.31244H7.46992C7.15457 9.02404 6.59281 9.60921 5.87971 9.9689C5.1666 10.3286 4.34595 10.4407 3.55662 10.2863C2.7673 10.132 2.05777 9.72051 1.54811 9.12164C1.03845 8.52278 0.75996 7.77326 0.759766 6.99994ZM4.25369 5.83327C3.93138 5.83327 3.62227 5.95619 3.39436 6.17498C3.16645 6.39378 3.03841 6.69052 3.03841 6.99994C3.03841 7.30936 3.16645 7.60611 3.39436 7.8249C3.62227 8.04369 3.93138 8.16661 4.25369 8.16661C4.576 8.16661 4.88511 8.04369 5.11302 7.8249C5.34093 7.60611 5.46897 7.30936 5.46897 6.99994C5.46897 6.69052 5.34093 6.39378 5.11302 6.17498C4.88511 5.95619 4.576 5.83327 4.25369 5.83327Z" fill="#4E4D4D"/>
</svg>
