<svg width="188" height="66" viewBox="0 0 188 66" fill="none" xmlns="http://www.w3.org/2000/svg">
<g filter="url(#filter0_d_110_993)">
<path d="M4.56641 57.5508V0.363281H10.25V57.5508H4.56641ZM7.49609 57.5508V52.1602H15.7578V57.5508H7.49609ZM7.49609 5.75391V0.363281H15.7578V5.75391H7.49609ZM37.4375 48V5.40234H43.4141V48H37.4375ZM55.8945 48V29.5723C55.8945 27.4238 55.3379 25.7637 54.2246 24.5918C53.1309 23.4199 51.5684 22.834 49.5371 22.834C47.584 22.834 46.0703 23.3418 44.9961 24.3574C43.9414 25.373 43.4141 26.8086 43.4141 28.6641L42.7988 22.8047C43.7363 21.0078 44.957 19.6211 46.4609 18.6445C47.9844 17.6484 49.6641 17.1504 51.5 17.1504C54.8008 17.1504 57.3496 18.2344 59.1465 20.4023C60.9629 22.5508 61.8711 25.5977 61.8711 29.543V48H55.8945ZM83.4043 48.4395C79.166 48.4395 75.8848 47.2578 73.5605 44.8945C71.2363 42.5312 70.0742 39.1719 70.0742 34.8164V31.3887C70.0742 26.8574 71.1875 23.3516 73.4141 20.8711C75.6602 18.3906 78.8145 17.1504 82.877 17.1504C86.7051 17.1504 89.6641 18.5566 91.7539 21.3691C93.8633 24.1816 94.918 28.127 94.918 33.2051V35.1973H74.4102V30.3926H89.2344C89.0586 27.9316 88.4141 26.0078 87.3008 24.6211C86.207 23.2344 84.7324 22.541 82.877 22.541C80.6309 22.541 78.8828 23.2832 77.6328 24.7676C76.3828 26.252 75.7578 28.3516 75.7578 31.0664V34.9336C75.7578 37.4531 76.4219 39.3867 77.75 40.7344C79.0977 42.082 80.9824 42.7559 83.4043 42.7559C84.6152 42.7559 85.8164 42.5117 87.0078 42.0234C88.1992 41.5352 89.2637 40.8516 90.2012 39.9727L94.127 43.8984C92.623 45.3438 90.9336 46.4668 89.0586 47.2676C87.1836 48.0488 85.2988 48.4395 83.4043 48.4395ZM103.121 48V17.5898H109.098V48H103.121ZM119.85 24.7969C119.322 24.1523 118.658 23.6641 117.857 23.332C117.057 23 116.129 22.834 115.074 22.834C113.18 22.834 111.705 23.3613 110.65 24.416C109.615 25.4512 109.098 26.8965 109.098 28.752L108.482 22.8926C109.4 21.0957 110.602 19.6895 112.086 18.6738C113.59 17.6582 115.24 17.1504 117.037 17.1504C118.424 17.1504 119.674 17.3555 120.787 17.7656C121.92 18.1562 122.906 18.7422 123.746 19.5234L119.85 24.7969ZM140.592 48.4395C136.354 48.4395 133.072 47.2578 130.748 44.8945C128.424 42.5312 127.262 39.1719 127.262 34.8164V31.3887C127.262 26.8574 128.375 23.3516 130.602 20.8711C132.848 18.3906 136.002 17.1504 140.064 17.1504C143.893 17.1504 146.852 18.5566 148.941 21.3691C151.051 24.1816 152.105 28.127 152.105 33.2051V35.1973H131.598V30.3926H146.422C146.246 27.9316 145.602 26.0078 144.488 24.6211C143.395 23.2344 141.92 22.541 140.064 22.541C137.818 22.541 136.07 23.2832 134.82 24.7676C133.57 26.252 132.945 28.3516 132.945 31.0664V34.9336C132.945 37.4531 133.609 39.3867 134.938 40.7344C136.285 42.082 138.17 42.7559 140.592 42.7559C141.803 42.7559 143.004 42.5117 144.195 42.0234C145.387 41.5352 146.451 40.8516 147.389 39.9727L151.314 43.8984C149.811 45.3438 148.121 46.4668 146.246 47.2676C144.371 48.0488 142.486 48.4395 140.592 48.4395ZM178.121 57.5508V0.363281H183.805V57.5508H178.121ZM172.613 57.5508V52.1602H180.875V57.5508H172.613ZM172.613 5.75391V0.363281H180.875V5.75391H172.613Z" fill="white"/>
</g>
<defs>
<filter id="filter0_d_110_993" x="0.566406" y="0.363281" width="187.238" height="65.1875" filterUnits="userSpaceOnUse" color-interpolation-filters="sRGB">
<feFlood flood-opacity="0" result="BackgroundImageFix"/>
<feColorMatrix in="SourceAlpha" type="matrix" values="0 0 0 0 0 0 0 0 0 0 0 0 0 0 0 0 0 0 127 0" result="hardAlpha"/>
<feOffset dy="4"/>
<feGaussianBlur stdDeviation="2"/>
<feComposite in2="hardAlpha" operator="out"/>
<feColorMatrix type="matrix" values="0 0 0 0 0 0 0 0 0 0 0 0 0 0 0 0 0 0 0.25 0"/>
<feBlend mode="normal" in2="BackgroundImageFix" result="effect1_dropShadow_110_993"/>
<feBlend mode="normal" in="SourceGraphic" in2="effect1_dropShadow_110_993" result="shape"/>
</filter>
</defs>
</svg>
