<svg width="245" height="23" viewBox="0 0 245 23" fill="none" xmlns="http://www.w3.org/2000/svg">
<path d="M37.7324 8.06836L34.5879 18H31.7852L30.4863 12.6191L29.1289 18H26.3555L23.1523 8.06836H26.9805L28.2891 12.9316L29.5391 8.06836H32.4102L33.6504 12.9316L35.0273 8.06836H37.7324ZM44.6648 18.2051C43.0177 18.2051 41.7091 17.694 40.7391 16.6719C39.769 15.6432 39.284 14.4388 39.284 13.0586C39.284 11.5742 39.7885 10.3372 40.7977 9.34766C41.8133 8.35807 43.1316 7.86328 44.7527 7.86328C46.3868 7.86328 47.6987 8.35156 48.6883 9.32812C49.6844 10.3047 50.1824 11.5286 50.1824 13C50.1824 14.4844 49.6779 15.7246 48.6687 16.7207C47.6661 17.7103 46.3315 18.2051 44.6648 18.2051ZM44.7234 15.8418C45.3289 15.8418 45.6967 15.5293 45.827 14.9043C45.9637 14.2728 46.032 13.6152 46.032 12.9316C46.032 12.0007 45.9376 11.3301 45.7488 10.9199C45.56 10.5098 45.2215 10.3047 44.7332 10.3047C44.284 10.3047 43.9552 10.5163 43.7469 10.9395C43.5385 11.3626 43.4344 12.0592 43.4344 13.0293C43.4344 14.1686 43.5418 14.9238 43.7566 15.2949C43.9715 15.6595 44.2937 15.8418 44.7234 15.8418ZM56.6363 18H52.9059V8.06836H56.148V10.1191C56.5191 8.62826 57.3818 7.88281 58.7359 7.88281C58.8727 7.88281 59.0615 7.89583 59.3023 7.92188V11.3887C59.0289 11.3236 58.7848 11.291 58.5699 11.291C57.2809 11.291 56.6363 12.0104 56.6363 13.4492V18ZM72.0062 8.06836L69.0082 11.4863L72.348 18H68.3246L66.4594 14.0254L65.3949 15.2656V18H61.7426V4.66992H65.3949V10.0508C65.3949 10.2005 65.3852 10.7995 65.3656 11.8477C65.6 11.5156 65.8376 11.2129 66.0785 10.9395L68.5687 8.06836H72.0062ZM84.8262 10.5977V18H81.1543V10.5977H79.6699V8.06836H81.1543C81.1543 7.24805 81.1901 6.64258 81.2617 6.25195C81.3333 5.85482 81.5124 5.47721 81.7988 5.11914C82.0853 4.75456 82.4694 4.47786 82.9512 4.28906C83.4329 4.09375 84.0807 3.99609 84.8945 3.99609C85.7669 3.99609 86.6035 4.06445 87.4043 4.20117V6.75C86.7858 6.66536 86.3236 6.62305 86.0176 6.62305C85.7116 6.62305 85.4316 6.6849 85.1777 6.80859C84.9238 6.93229 84.7969 7.23503 84.7969 7.7168V8.06836H87.3359V10.5977H84.8262ZM93.409 18H89.6785V8.06836H92.9207V10.1191C93.2918 8.62826 94.1544 7.88281 95.5086 7.88281C95.6453 7.88281 95.8341 7.89583 96.075 7.92188V11.3887C95.8016 11.3236 95.5574 11.291 95.3426 11.291C94.0535 11.291 93.409 12.0104 93.409 13.4492V18ZM103.369 18.2051C101.722 18.2051 100.413 17.694 99.443 16.6719C98.4729 15.6432 97.9879 14.4388 97.9879 13.0586C97.9879 11.5742 98.4924 10.3372 99.5016 9.34766C100.517 8.35807 101.836 7.86328 103.457 7.86328C105.091 7.86328 106.403 8.35156 107.392 9.32812C108.388 10.3047 108.886 11.5286 108.886 13C108.886 14.4844 108.382 15.7246 107.373 16.7207C106.37 17.7103 105.035 18.2051 103.369 18.2051ZM103.427 15.8418C104.033 15.8418 104.401 15.5293 104.531 14.9043C104.668 14.2728 104.736 13.6152 104.736 12.9316C104.736 12.0007 104.642 11.3301 104.453 10.9199C104.264 10.5098 103.925 10.3047 103.437 10.3047C102.988 10.3047 102.659 10.5163 102.451 10.9395C102.242 11.3626 102.138 12.0592 102.138 13.0293C102.138 14.1686 102.246 14.9238 102.461 15.2949C102.675 15.6595 102.998 15.8418 103.427 15.8418ZM126.659 18H122.879V11.7891C122.879 11.3724 122.817 11.0827 122.694 10.9199C122.577 10.7507 122.365 10.666 122.059 10.666C121.33 10.666 120.965 11.1966 120.965 12.2578V18H117.225V11.7891C117.225 10.9948 116.919 10.5977 116.307 10.5977C115.676 10.5977 115.36 10.9948 115.36 11.7891V18H111.61V8.06836H115.106V9.40625C115.731 8.3776 116.639 7.86328 117.83 7.86328C119.113 7.86328 120.044 8.3776 120.623 9.40625C121.268 8.3776 122.258 7.86328 123.592 7.86328C124.23 7.86328 124.79 7.99674 125.272 8.26367C125.76 8.5306 126.112 8.87565 126.327 9.29883C126.548 9.71549 126.659 10.3633 126.659 11.2422V18Z" fill="white"/>
<path fill-rule="evenodd" clip-rule="evenodd" d="M10.5748 13.5114C11.4637 12.5443 12 11.2917 12 9.92327C12 6.86066 9.31371 4.37793 6 4.37793C2.68629 4.37793 0 6.86066 0 9.92327C0 11.2917 0.536283 12.5443 1.4252 13.5114H1.41142L5.9996 18.3779L10.5879 13.5114H10.5748ZM7.06239 8.44676C7.06239 8.98907 6.58671 9.4287 5.99994 9.4287C5.41317 9.4287 4.9375 8.98907 4.9375 8.44676C4.9375 7.90446 5.41317 7.46483 5.99994 7.46483C6.58671 7.46483 7.06239 7.90446 7.06239 8.44676Z" fill="#F1B620"/>
<path d="M163.051 18H159.34C159.249 17.5768 159.203 17.1146 159.203 16.6133C158.5 17.6745 157.436 18.2051 156.01 18.2051C154.838 18.2051 153.959 17.9056 153.373 17.3066C152.794 16.7077 152.504 16.0208 152.504 15.2461C152.504 14.1979 152.979 13.3516 153.93 12.707C154.887 12.056 156.579 11.6654 159.008 11.5352V11.3105C159.008 10.8743 158.907 10.5846 158.705 10.4414C158.51 10.2982 158.22 10.2266 157.836 10.2266C156.938 10.2266 156.436 10.5879 156.332 11.3105L152.777 10.9785C153.285 8.90169 155.014 7.86328 157.963 7.86328C158.764 7.86328 159.499 7.94466 160.17 8.10742C160.84 8.26367 161.371 8.51107 161.762 8.84961C162.152 9.18815 162.413 9.54622 162.543 9.92383C162.68 10.3014 162.748 11.0273 162.748 12.1016V16.0664C162.748 16.8216 162.849 17.4661 163.051 18ZM159.008 13.3516C157.348 13.5273 156.518 14.0579 156.518 14.9434C156.518 15.5423 156.846 15.8418 157.504 15.8418C157.921 15.8418 158.275 15.7181 158.568 15.4707C158.861 15.2233 159.008 14.6764 159.008 13.8301V13.3516ZM175.677 18H171.78V11.75C171.78 11.2357 171.699 10.9069 171.536 10.7637C171.38 10.6204 171.181 10.5488 170.94 10.5488C170.231 10.5488 169.876 11.0436 169.876 12.0332V18H165.979V8.06836H169.593V9.47461C170.126 8.40039 171.08 7.86328 172.454 7.86328C173.177 7.86328 173.785 8.00326 174.28 8.2832C174.781 8.55664 175.139 8.91471 175.354 9.35742C175.569 9.79362 175.677 10.5553 175.677 11.6426V18ZM187.98 8.06836L184.084 18.8301C183.784 19.6439 183.354 20.2786 182.795 20.7344C182.235 21.1966 181.372 21.4277 180.207 21.4277C179.927 21.4277 179.276 21.3984 178.254 21.3398V18.5762C178.761 18.6543 179.23 18.6934 179.66 18.6934C180.78 18.6934 181.339 18.446 181.339 17.9512C181.339 17.7884 181.284 17.5638 181.173 17.2773L177.609 8.06836H181.779L183.42 13.3613L185.138 8.06836H187.98ZM201.602 4.66992V18H197.51V12.8145H194.385V18H190.293V4.66992H194.385V9.57227H197.51V4.66992H201.602ZM215.155 14.8164V18H205.126V4.66992H215.155V7.74609H209.14V9.67969H214.003V12.6387H209.14V14.8164H215.155ZM229.852 18H225.311L223.367 12.9023H222.078V18H217.986V4.66992H224.949C226.486 4.66992 227.677 5.03125 228.523 5.75391C229.376 6.47005 229.803 7.41732 229.803 8.5957C229.803 9.36393 229.646 10.0443 229.334 10.6367C229.021 11.2227 228.39 11.7402 227.439 12.1895L229.852 18ZM222.078 10.0508H223.826C224.34 10.0508 224.754 9.94336 225.066 9.72852C225.379 9.51367 225.535 9.19792 225.535 8.78125C225.535 7.92839 225.011 7.50195 223.963 7.50195H222.078V10.0508ZM243.024 14.8164V18H232.995V4.66992H243.024V7.74609H237.009V9.67969H241.872V12.6387H237.009V14.8164H243.024Z" fill="#F1B620"/>
</svg>
