<svg width="80" height="64" viewBox="0 0 80 64" fill="none" xmlns="http://www.w3.org/2000/svg">
<path d="M61.0027 23.9993H42.0028V30.9999C42.0028 35.9628 37.9653 40.0007 33.0028 40.0007C28.0403 40.0007 24.0028 35.9628 24.0028 30.9999V15.7986L15.8903 20.674C13.4778 22.1117 12.0028 24.7244 12.0028 27.5246V33.4376L2.00285 39.2131C0.0903508 40.3132 -0.572148 42.7634 0.54035 44.6761L10.5403 62.0025C11.6403 63.9152 14.0903 64.5653 16.0028 63.4652L28.9278 56.002H46.0028C50.4153 56.002 54.0028 52.4142 54.0028 48.0014H56.0027C58.2152 48.0014 60.0027 46.2137 60.0027 44.001V36.0003H61.0027C62.6652 36.0003 64.0027 34.6627 64.0027 33.0001V26.9996C64.0027 25.3369 62.6652 23.9993 61.0027 23.9993ZM79.4652 19.3239L69.4652 1.99746C68.3652 0.0848031 65.9152 -0.565252 64.0027 0.534841L51.0778 7.99797H38.3028C36.8028 7.99797 35.3403 8.42301 34.0653 9.21057L29.8778 11.8233C28.7028 12.5484 28.0028 13.836 28.0028 15.2111V30.9999C28.0028 33.7626 30.2403 36.0003 33.0028 36.0003C35.7653 36.0003 38.0028 33.7626 38.0028 30.9999V19.999H61.0027C64.8652 19.999 68.0027 23.1368 68.0027 26.9996V30.5624L78.0027 24.7869C79.9152 23.6743 80.5652 21.2366 79.4652 19.3239Z" fill="white"/>
</svg>
