<svg width="743" height="166" viewBox="0 0 743 166" fill="none" xmlns="http://www.w3.org/2000/svg">
<path d="M99.8238 62.8C99.8238 65.48 99.4638 67.86 98.7438 69.94C98.0238 72.02 97.0038 73.78 95.6838 75.22C94.3638 76.66 92.7638 77.76 90.8838 78.52C89.0038 79.24 86.8838 79.6 84.5238 79.6C82.3638 79.6 80.3638 79.24 78.5238 78.52C76.6838 77.76 75.0838 76.66 73.7238 75.22C72.4038 73.78 71.3638 72.02 70.6038 69.94C69.8438 67.86 69.4638 65.46 69.4638 62.74C69.4638 59.18 70.0638 56.16 71.2638 53.68C72.5038 51.2 74.2638 49.32 76.5438 48.04C78.8638 46.72 81.5838 46.06 84.7038 46.06C87.6638 46.06 90.2638 46.72 92.5038 48.04C94.7838 49.32 96.5638 51.2 97.8438 53.68C99.1638 56.16 99.8238 59.2 99.8238 62.8ZM76.0038 62.8C76.0038 65.2 76.3038 67.28 76.9038 69.04C77.5038 70.76 78.4438 72.08 79.7238 73C81.0038 73.92 82.6438 74.38 84.6438 74.38C86.6438 74.38 88.2838 73.92 89.5638 73C90.8438 72.08 91.7838 70.76 92.3838 69.04C92.9838 67.28 93.2838 65.2 93.2838 62.8C93.2838 60.32 92.9638 58.24 92.3238 56.56C91.7238 54.88 90.7838 53.6 89.5038 52.72C88.2638 51.8 86.6238 51.34 84.5838 51.34C81.5838 51.34 79.4038 52.34 78.0438 54.34C76.6838 56.34 76.0038 59.16 76.0038 62.8ZM123.846 46.06C124.406 46.06 125.026 46.1 125.706 46.18C126.386 46.22 126.946 46.28 127.386 46.36L126.726 52.3C126.286 52.18 125.766 52.08 125.166 52C124.566 51.92 124.006 51.88 123.486 51.88C122.286 51.88 121.126 52.12 120.006 52.6C118.926 53.04 117.946 53.7 117.066 54.58C116.186 55.42 115.486 56.46 114.966 57.7C114.486 58.94 114.246 60.36 114.246 61.96V79H107.886V46.66H112.926L113.766 52.42H114.006C114.686 51.26 115.506 50.2 116.466 49.24C117.426 48.28 118.526 47.52 119.766 46.96C121.006 46.36 122.366 46.06 123.846 46.06ZM139.675 56.2C139.675 57.04 139.635 58 139.555 59.08C139.515 60.16 139.455 61.16 139.375 62.08H139.555C139.875 61.68 140.255 61.2 140.695 60.64C141.175 60.04 141.655 59.44 142.135 58.84C142.615 58.24 143.055 57.72 143.455 57.28L153.355 46.66H160.735L147.715 60.52L161.575 79H154.075L143.395 64.54L139.675 67.66V79H133.375V33.4H139.675V56.2ZM245.194 46.06C245.754 46.06 246.374 46.1 247.054 46.18C247.734 46.22 248.294 46.28 248.734 46.36L248.074 52.3C247.634 52.18 247.114 52.08 246.514 52C245.914 51.92 245.354 51.88 244.834 51.88C243.634 51.88 242.474 52.12 241.354 52.6C240.274 53.04 239.294 53.7 238.414 54.58C237.534 55.42 236.834 56.46 236.314 57.7C235.834 58.94 235.594 60.36 235.594 61.96V79H229.234V46.66H234.274L235.114 52.42H235.354C236.034 51.26 236.854 50.2 237.814 49.24C238.774 48.28 239.874 47.52 241.114 46.96C242.354 46.36 243.714 46.06 245.194 46.06ZM282.05 62.8C282.05 65.48 281.69 67.86 280.97 69.94C280.25 72.02 279.23 73.78 277.91 75.22C276.59 76.66 274.99 77.76 273.11 78.52C271.23 79.24 269.11 79.6 266.75 79.6C264.59 79.6 262.59 79.24 260.75 78.52C258.91 77.76 257.31 76.66 255.95 75.22C254.63 73.78 253.59 72.02 252.83 69.94C252.07 67.86 251.69 65.46 251.69 62.74C251.69 59.18 252.29 56.16 253.49 53.68C254.73 51.2 256.49 49.32 258.77 48.04C261.09 46.72 263.81 46.06 266.93 46.06C269.89 46.06 272.49 46.72 274.73 48.04C277.01 49.32 278.79 51.2 280.07 53.68C281.39 56.16 282.05 59.2 282.05 62.8ZM258.23 62.8C258.23 65.2 258.53 67.28 259.13 69.04C259.73 70.76 260.67 72.08 261.95 73C263.23 73.92 264.87 74.38 266.87 74.38C268.87 74.38 270.51 73.92 271.79 73C273.07 72.08 274.01 70.76 274.61 69.04C275.21 67.28 275.51 65.2 275.51 62.8C275.51 60.32 275.19 58.24 274.55 56.56C273.95 54.88 273.01 53.6 271.73 52.72C270.49 51.8 268.85 51.34 266.81 51.34C263.81 51.34 261.63 52.34 260.27 54.34C258.91 56.34 258.23 59.16 258.23 62.8ZM326.353 46.06C329.993 46.06 332.733 47 334.573 48.88C336.413 50.76 337.333 53.78 337.333 57.94V79H330.973V58.78C330.973 56.3 330.473 54.44 329.473 53.2C328.513 51.92 326.993 51.28 324.913 51.28C322.033 51.28 319.973 52.18 318.733 53.98C317.493 55.74 316.873 58.3 316.873 61.66V79H310.573V58.78C310.573 57.14 310.333 55.76 309.853 54.64C309.413 53.52 308.753 52.68 307.873 52.12C306.993 51.56 305.853 51.28 304.453 51.28C302.453 51.28 300.873 51.72 299.713 52.6C298.553 53.48 297.713 54.78 297.193 56.5C296.713 58.18 296.473 60.24 296.473 62.68V79H290.113V46.66H295.153L296.053 50.98H296.413C297.093 49.86 297.913 48.94 298.873 48.22C299.873 47.5 300.973 46.96 302.173 46.6C303.373 46.24 304.613 46.06 305.893 46.06C308.333 46.06 310.393 46.5 312.073 47.38C313.753 48.22 314.973 49.52 315.733 51.28H316.213C317.253 49.48 318.693 48.16 320.533 47.32C322.373 46.48 324.313 46.06 326.353 46.06ZM390.778 46.06C394.858 46.06 397.898 46.96 399.898 48.76C401.898 50.52 402.898 53.3 402.898 57.1V79H398.398L397.138 74.5H396.898C395.978 75.66 395.018 76.62 394.018 77.38C393.058 78.14 391.938 78.7 390.658 79.06C389.418 79.42 387.898 79.6 386.098 79.6C384.178 79.6 382.438 79.26 380.878 78.58C379.358 77.86 378.158 76.78 377.278 75.34C376.398 73.86 375.958 72.02 375.958 69.82C375.958 66.54 377.198 64.04 379.678 62.32C382.198 60.6 386.018 59.66 391.138 59.5L396.658 59.32V57.52C396.658 55.12 396.118 53.44 395.038 52.48C393.958 51.52 392.438 51.04 390.478 51.04C388.798 51.04 387.198 51.28 385.678 51.76C384.158 52.24 382.718 52.82 381.358 53.5L379.318 48.88C380.838 48.08 382.578 47.42 384.538 46.9C386.538 46.34 388.618 46.06 390.778 46.06ZM392.278 63.58C388.598 63.74 386.038 64.36 384.598 65.44C383.198 66.48 382.498 67.96 382.498 69.88C382.498 71.56 382.998 72.78 383.998 73.54C385.038 74.3 386.338 74.68 387.898 74.68C390.418 74.68 392.498 73.98 394.138 72.58C395.778 71.18 396.598 69.08 396.598 66.28V63.46L392.278 63.58ZM429.071 46.06C432.831 46.06 435.711 47 437.711 48.88C439.711 50.76 440.711 53.78 440.711 57.94V79H434.411V58.84C434.411 56.32 433.871 54.44 432.791 53.2C431.751 51.92 430.071 51.28 427.751 51.28C424.471 51.28 422.191 52.26 420.911 54.22C419.671 56.18 419.051 59 419.051 62.68V79H412.691V46.66H417.731L418.631 50.98H418.991C419.711 49.86 420.591 48.94 421.631 48.22C422.671 47.5 423.831 46.96 425.111 46.6C426.391 46.24 427.711 46.06 429.071 46.06ZM445.564 46.66H452.404L459.124 65.02C459.484 65.94 459.804 66.84 460.084 67.72C460.364 68.6 460.604 69.48 460.804 70.36C461.044 71.2 461.224 72.04 461.344 72.88H461.584C461.784 71.84 462.104 70.62 462.544 69.22C462.984 67.78 463.444 66.36 463.924 64.96L470.284 46.66H477.124L463.264 83.38C462.504 85.46 461.564 87.24 460.444 88.72C459.324 90.24 457.984 91.4 456.424 92.2C454.904 93 453.104 93.4 451.024 93.4C450.024 93.4 449.164 93.34 448.444 93.22C447.724 93.14 447.104 93.04 446.584 92.92V87.88C447.024 87.96 447.544 88.04 448.144 88.12C448.784 88.2 449.444 88.24 450.124 88.24C451.364 88.24 452.424 88 453.304 87.52C454.224 87.04 454.984 86.36 455.584 85.48C456.224 84.6 456.764 83.6 457.204 82.48L458.524 79L445.564 46.66ZM4.06 118.66H10.9L17.62 137.02C17.98 137.94 18.3 138.84 18.58 139.72C18.86 140.6 19.1 141.48 19.3 142.36C19.54 143.2 19.72 144.04 19.84 144.88H20.08C20.28 143.84 20.6 142.62 21.04 141.22C21.48 139.78 21.94 138.36 22.42 136.96L28.78 118.66H35.62L21.76 155.38C21 157.46 20.06 159.24 18.94 160.72C17.82 162.24 16.48 163.4 14.92 164.2C13.4 165 11.6 165.4 9.52 165.4C8.52 165.4 7.66 165.34 6.94 165.22C6.22 165.14 5.6 165.04 5.08 164.92V159.88C5.52 159.96 6.04 160.04 6.64 160.12C7.28 160.2 7.94 160.24 8.62 160.24C9.86 160.24 10.92 160 11.8 159.52C12.72 159.04 13.48 158.36 14.08 157.48C14.72 156.6 15.26 155.6 15.7 154.48L17.02 151L4.06 118.66ZM69.1206 134.8C69.1206 137.48 68.7606 139.86 68.0406 141.94C67.3206 144.02 66.3006 145.78 64.9806 147.22C63.6606 148.66 62.0606 149.76 60.1806 150.52C58.3006 151.24 56.1806 151.6 53.8206 151.6C51.6606 151.6 49.6606 151.24 47.8206 150.52C45.9806 149.76 44.3806 148.66 43.0206 147.22C41.7006 145.78 40.6606 144.02 39.9006 141.94C39.1406 139.86 38.7606 137.46 38.7606 134.74C38.7606 131.18 39.3606 128.16 40.5606 125.68C41.8006 123.2 43.5606 121.32 45.8406 120.04C48.1606 118.72 50.8806 118.06 54.0006 118.06C56.9606 118.06 59.5606 118.72 61.8006 120.04C64.0806 121.32 65.8606 123.2 67.1406 125.68C68.4606 128.16 69.1206 131.2 69.1206 134.8ZM45.3006 134.8C45.3006 137.2 45.6006 139.28 46.2006 141.04C46.8006 142.76 47.7406 144.08 49.0206 145C50.3006 145.92 51.9406 146.38 53.9406 146.38C55.9406 146.38 57.5806 145.92 58.8606 145C60.1406 144.08 61.0806 142.76 61.6806 141.04C62.2806 139.28 62.5806 137.2 62.5806 134.8C62.5806 132.32 62.2606 130.24 61.6206 128.56C61.0206 126.88 60.0806 125.6 58.8006 124.72C57.5606 123.8 55.9206 123.34 53.8806 123.34C50.8806 123.34 48.7006 124.34 47.3406 126.34C45.9806 128.34 45.3006 131.16 45.3006 134.8ZM105.023 118.66V151H99.9231L99.0231 146.74H98.7231C98.0431 147.86 97.1631 148.78 96.0831 149.5C95.0031 150.22 93.8231 150.74 92.5431 151.06C91.2631 151.42 89.9431 151.6 88.5831 151.6C86.0631 151.6 83.9231 151.2 82.1631 150.4C80.4431 149.56 79.1231 148.28 78.2031 146.56C77.3231 144.8 76.8831 142.56 76.8831 139.84V118.66H83.3031V138.88C83.3031 141.4 83.8231 143.28 84.8631 144.52C85.9431 145.76 87.6031 146.38 89.8431 146.38C92.0831 146.38 93.8431 145.94 95.1231 145.06C96.4031 144.18 97.3031 142.9 97.8231 141.22C98.3831 139.5 98.6631 137.44 98.6631 135.04V118.66H105.023ZM152.402 134.8C152.202 134 151.962 133.12 151.682 132.16C151.442 131.2 151.202 130.24 150.962 129.28C150.722 128.28 150.502 127.36 150.302 126.52C150.102 125.68 149.942 125.02 149.822 124.54H149.582C149.502 125.02 149.362 125.68 149.162 126.52C149.002 127.36 148.802 128.28 148.562 129.28C148.322 130.24 148.082 131.22 147.842 132.22C147.602 133.18 147.342 134.06 147.062 134.86L142.262 150.94H135.182L126.242 118.6H132.722L136.922 134.98C137.242 136.1 137.522 137.28 137.762 138.52C138.042 139.76 138.282 140.96 138.482 142.12C138.722 143.24 138.882 144.18 138.962 144.94H139.202C139.282 144.42 139.402 143.78 139.562 143.02C139.722 142.22 139.882 141.4 140.042 140.56C140.242 139.68 140.422 138.84 140.582 138.04C140.782 137.24 140.982 136.58 141.182 136.06L146.342 118.6H153.302L158.342 136.06C158.582 136.86 158.842 137.82 159.122 138.94C159.402 140.02 159.642 141.1 159.842 142.18C160.082 143.22 160.242 144.12 160.322 144.88H160.562C160.642 144.2 160.782 143.32 160.982 142.24C161.182 141.12 161.422 139.92 161.702 138.64C162.022 137.36 162.322 136.14 162.602 134.98L166.922 118.6H173.342L164.282 150.94H157.022L152.402 134.8ZM191.5 118.06C195.58 118.06 198.62 118.96 200.62 120.76C202.62 122.52 203.62 125.3 203.62 129.1V151H199.12L197.86 146.5H197.62C196.7 147.66 195.74 148.62 194.74 149.38C193.78 150.14 192.66 150.7 191.38 151.06C190.14 151.42 188.62 151.6 186.82 151.6C184.9 151.6 183.16 151.26 181.6 150.58C180.08 149.86 178.88 148.78 178 147.34C177.12 145.86 176.68 144.02 176.68 141.82C176.68 138.54 177.92 136.04 180.4 134.32C182.92 132.6 186.74 131.66 191.86 131.5L197.38 131.32V129.52C197.38 127.12 196.84 125.44 195.76 124.48C194.68 123.52 193.16 123.04 191.2 123.04C189.52 123.04 187.92 123.28 186.4 123.76C184.88 124.24 183.44 124.82 182.08 125.5L180.04 120.88C181.56 120.08 183.3 119.42 185.26 118.9C187.26 118.34 189.34 118.06 191.5 118.06ZM193 135.58C189.32 135.74 186.76 136.36 185.32 137.44C183.92 138.48 183.22 139.96 183.22 141.88C183.22 143.56 183.72 144.78 184.72 145.54C185.76 146.3 187.06 146.68 188.62 146.68C191.14 146.68 193.22 145.98 194.86 144.58C196.5 143.18 197.32 141.08 197.32 138.28V135.46L193 135.58ZM229.794 118.06C233.554 118.06 236.434 119 238.434 120.88C240.434 122.76 241.434 125.78 241.434 129.94V151H235.134V130.84C235.134 128.32 234.594 126.44 233.514 125.2C232.474 123.92 230.794 123.28 228.474 123.28C225.194 123.28 222.914 124.26 221.634 126.22C220.394 128.18 219.774 131 219.774 134.68V151H213.414V118.66H218.454L219.354 122.98H219.714C220.434 121.86 221.314 120.94 222.354 120.22C223.394 119.5 224.554 118.96 225.834 118.6C227.114 118.24 228.434 118.06 229.794 118.06ZM262.847 146.44C263.687 146.44 264.547 146.36 265.427 146.2C266.307 146.04 267.067 145.86 267.707 145.66V150.46C267.027 150.78 266.107 151.04 264.947 151.24C263.787 151.48 262.627 151.6 261.467 151.6C259.707 151.6 258.087 151.3 256.607 150.7C255.167 150.1 254.007 149.06 253.127 147.58C252.247 146.1 251.807 144.04 251.807 141.4V123.52H247.307V120.64L252.047 118.24L254.267 111.4H258.167V118.66H267.407V123.52H258.167V141.28C258.167 143.04 258.587 144.34 259.427 145.18C260.307 146.02 261.447 146.44 262.847 146.44ZM273.275 147.46C273.275 145.9 273.675 144.8 274.475 144.16C275.275 143.52 276.235 143.2 277.355 143.2C278.515 143.2 279.495 143.52 280.295 144.16C281.095 144.8 281.495 145.9 281.495 147.46C281.495 149.02 281.095 150.14 280.295 150.82C279.495 151.5 278.515 151.84 277.355 151.84C276.235 151.84 275.275 151.5 274.475 150.82C273.675 150.14 273.275 149.02 273.275 147.46Z" fill="#F5F5F5"/>
<g filter="url(#filter0_d_123_754)">
<path d="M63 25V65.0508C63 70.0486 61.4893 74.1229 58.4678 77.2738C55.4464 80.4246 51.5403 82 46.7495 82C40.9788 82 36.5691 79.3788 33.5204 74.1365C31.6422 76.9614 29.6279 78.985 27.4775 80.2073C25.3271 81.4024 22.6731 82 19.5156 82C14.507 82 10.669 80.4246 8.00139 77.2738C5.3338 74.1229 4 69.5868 4 63.6655V25H20.5772V61.1801C20.5772 62.9728 20.7133 64.1544 20.9855 64.7248C21.2849 65.2952 21.8701 65.5804 22.7412 65.5804C24.3744 65.5804 25.191 64.2087 25.191 61.4653V25H41.7682V61.1801C41.7682 62.9185 41.9179 64.0865 42.2173 64.6841C42.5167 65.2816 43.102 65.5804 43.973 65.5804C45.6062 65.5804 46.4228 64.1137 46.4228 61.1801V25H63Z" fill="white"/>
</g>
<g filter="url(#filter1_d_123_754)">
<path d="M545 31V71.0508C545 76.0486 543.489 80.1229 540.468 83.2738C537.446 86.4246 533.54 88 528.749 88C522.979 88 518.569 85.3788 515.52 80.1365C513.642 82.9614 511.628 84.985 509.478 86.2073C507.327 87.4024 504.673 88 501.516 88C496.507 88 492.669 86.4246 490.001 83.2738C487.334 80.1229 486 75.5868 486 69.6655V31H502.577V67.1801C502.577 68.9728 502.713 70.1544 502.985 70.7248C503.285 71.2952 503.87 71.5804 504.741 71.5804C506.374 71.5804 507.191 70.2087 507.191 67.4653V31H523.768V67.1801C523.768 68.9185 523.918 70.0865 524.217 70.6841C524.517 71.2816 525.102 71.5804 525.973 71.5804C527.606 71.5804 528.423 70.1137 528.423 67.1801V31H545Z" fill="white"/>
</g>
<g filter="url(#filter2_d_123_754)">
<path d="M214.058 52.5833V67.4954H208.554V82H192V47.4904C192 40.9986 193.998 35.634 197.994 31.3967C202.016 27.1322 207.072 25 213.161 25C219.875 25 225.488 27.8928 230 33.6783L216.423 43.579C215.662 41.4603 214.316 40.401 212.386 40.401C209.831 40.401 208.554 42.1665 208.554 45.6976V52.5833H214.058Z" fill="white"/>
</g>
<path d="M557.566 88.5508V31.3633H563.25V88.5508H557.566ZM560.496 88.5508V83.1602H568.758V88.5508H560.496ZM560.496 36.7539V31.3633H568.758V36.7539H560.496ZM590.438 79V36.4023H596.414V79H590.438ZM608.895 79V60.5723C608.895 58.4238 608.338 56.7637 607.225 55.5918C606.131 54.4199 604.568 53.834 602.537 53.834C600.584 53.834 599.07 54.3418 597.996 55.3574C596.941 56.373 596.414 57.8086 596.414 59.6641L595.799 53.8047C596.736 52.0078 597.957 50.6211 599.461 49.6445C600.984 48.6484 602.664 48.1504 604.5 48.1504C607.801 48.1504 610.35 49.2344 612.146 51.4023C613.963 53.5508 614.871 56.5977 614.871 60.543V79H608.895ZM636.404 79.4395C632.166 79.4395 628.885 78.2578 626.561 75.8945C624.236 73.5312 623.074 70.1719 623.074 65.8164V62.3887C623.074 57.8574 624.188 54.3516 626.414 51.8711C628.66 49.3906 631.814 48.1504 635.877 48.1504C639.705 48.1504 642.664 49.5566 644.754 52.3691C646.863 55.1816 647.918 59.127 647.918 64.2051V66.1973H627.41V61.3926H642.234C642.059 58.9316 641.414 57.0078 640.301 55.6211C639.207 54.2344 637.732 53.541 635.877 53.541C633.631 53.541 631.883 54.2832 630.633 55.7676C629.383 57.252 628.758 59.3516 628.758 62.0664V65.9336C628.758 68.4531 629.422 70.3867 630.75 71.7344C632.098 73.082 633.982 73.7559 636.404 73.7559C637.615 73.7559 638.816 73.5117 640.008 73.0234C641.199 72.5352 642.264 71.8516 643.201 70.9727L647.127 74.8984C645.623 76.3438 643.934 77.4668 642.059 78.2676C640.184 79.0488 638.299 79.4395 636.404 79.4395ZM656.121 79V48.5898H662.098V79H656.121ZM672.85 55.7969C672.322 55.1523 671.658 54.6641 670.857 54.332C670.057 54 669.129 53.834 668.074 53.834C666.18 53.834 664.705 54.3613 663.65 55.416C662.615 56.4512 662.098 57.8965 662.098 59.752L661.482 53.8926C662.4 52.0957 663.602 50.6895 665.086 49.6738C666.59 48.6582 668.24 48.1504 670.037 48.1504C671.424 48.1504 672.674 48.3555 673.787 48.7656C674.92 49.1562 675.906 49.7422 676.746 50.5234L672.85 55.7969ZM693.592 79.4395C689.354 79.4395 686.072 78.2578 683.748 75.8945C681.424 73.5312 680.262 70.1719 680.262 65.8164V62.3887C680.262 57.8574 681.375 54.3516 683.602 51.8711C685.848 49.3906 689.002 48.1504 693.064 48.1504C696.893 48.1504 699.852 49.5566 701.941 52.3691C704.051 55.1816 705.105 59.127 705.105 64.2051V66.1973H684.598V61.3926H699.422C699.246 58.9316 698.602 57.0078 697.488 55.6211C696.395 54.2344 694.92 53.541 693.064 53.541C690.818 53.541 689.07 54.2832 687.82 55.7676C686.57 57.252 685.945 59.3516 685.945 62.0664V65.9336C685.945 68.4531 686.609 70.3867 687.938 71.7344C689.285 73.082 691.17 73.7559 693.592 73.7559C694.803 73.7559 696.004 73.5117 697.195 73.0234C698.387 72.5352 699.451 71.8516 700.389 70.9727L704.314 74.8984C702.811 76.3438 701.121 77.4668 699.246 78.2676C697.371 79.0488 695.486 79.4395 693.592 79.4395ZM731.121 88.5508V31.3633H736.805V88.5508H731.121ZM725.613 88.5508V83.1602H733.875V88.5508H725.613ZM725.613 36.7539V31.3633H733.875V36.7539H725.613Z" fill="white"/>
<defs>
<filter id="filter0_d_123_754" x="0" y="25" width="67" height="65" filterUnits="userSpaceOnUse" color-interpolation-filters="sRGB">
<feFlood flood-opacity="0" result="BackgroundImageFix"/>
<feColorMatrix in="SourceAlpha" type="matrix" values="0 0 0 0 0 0 0 0 0 0 0 0 0 0 0 0 0 0 127 0" result="hardAlpha"/>
<feOffset dy="4"/>
<feGaussianBlur stdDeviation="2"/>
<feComposite in2="hardAlpha" operator="out"/>
<feColorMatrix type="matrix" values="0 0 0 0 0 0 0 0 0 0 0 0 0 0 0 0 0 0 0.25 0"/>
<feBlend mode="normal" in2="BackgroundImageFix" result="effect1_dropShadow_123_754"/>
<feBlend mode="normal" in="SourceGraphic" in2="effect1_dropShadow_123_754" result="shape"/>
</filter>
<filter id="filter1_d_123_754" x="482" y="31" width="67" height="65" filterUnits="userSpaceOnUse" color-interpolation-filters="sRGB">
<feFlood flood-opacity="0" result="BackgroundImageFix"/>
<feColorMatrix in="SourceAlpha" type="matrix" values="0 0 0 0 0 0 0 0 0 0 0 0 0 0 0 0 0 0 127 0" result="hardAlpha"/>
<feOffset dy="4"/>
<feGaussianBlur stdDeviation="2"/>
<feComposite in2="hardAlpha" operator="out"/>
<feColorMatrix type="matrix" values="0 0 0 0 0 0 0 0 0 0 0 0 0 0 0 0 0 0 0.25 0"/>
<feBlend mode="normal" in2="BackgroundImageFix" result="effect1_dropShadow_123_754"/>
<feBlend mode="normal" in="SourceGraphic" in2="effect1_dropShadow_123_754" result="shape"/>
</filter>
<filter id="filter2_d_123_754" x="188" y="25" width="46" height="65" filterUnits="userSpaceOnUse" color-interpolation-filters="sRGB">
<feFlood flood-opacity="0" result="BackgroundImageFix"/>
<feColorMatrix in="SourceAlpha" type="matrix" values="0 0 0 0 0 0 0 0 0 0 0 0 0 0 0 0 0 0 127 0" result="hardAlpha"/>
<feOffset dy="4"/>
<feGaussianBlur stdDeviation="2"/>
<feComposite in2="hardAlpha" operator="out"/>
<feColorMatrix type="matrix" values="0 0 0 0 0 0 0 0 0 0 0 0 0 0 0 0 0 0 0.25 0"/>
<feBlend mode="normal" in2="BackgroundImageFix" result="effect1_dropShadow_123_754"/>
<feBlend mode="normal" in="SourceGraphic" in2="effect1_dropShadow_123_754" result="shape"/>
</filter>
</defs>
</svg>
