<svg width="22" height="21" viewBox="0 0 22 21" fill="none" xmlns="http://www.w3.org/2000/svg">
<path d="M1 10.6957C1 15.8045 5.47715 19.9461 11 19.9461C16.5228 19.9461 21 15.8045 21 10.6957C21 5.58685 16.5228 1.44531 11 1.44531C5.47715 1.44531 1 5.58685 1 10.6957Z" stroke="#F5F5F5" stroke-width="2" stroke-linecap="round" stroke-linejoin="round"/>
<path d="M12.0029 1.49121C12.0029 1.49121 15.0029 5.14569 15.0029 10.6959C15.0029 16.2461 12.0029 19.9007 12.0029 19.9007" stroke="#F5F5F5" stroke-width="2" stroke-linecap="round" stroke-linejoin="round"/>
<path d="M10.0029 19.9007C10.0029 19.9007 7.00293 16.2461 7.00293 10.6959C7.00293 5.14569 10.0029 1.49121 10.0029 1.49121" stroke="#F5F5F5" stroke-width="2" stroke-linecap="round" stroke-linejoin="round"/>
<path d="M1.63184 13.9326H20.3726" stroke="#F5F5F5" stroke-width="2" stroke-linecap="round" stroke-linejoin="round"/>
<path d="M1.63184 7.46094H20.3726" stroke="#F5F5F5" stroke-width="2" stroke-linecap="round" stroke-linejoin="round"/>
</svg>
