<svg width="80" height="85" viewBox="0 0 80 85" fill="none" xmlns="http://www.w3.org/2000/svg">
<path d="M75.0833 13.8927L43.0833 0.610177C42.1086 0.207349 41.0636 0 40.0083 0C38.953 0 37.9081 0.207349 36.9333 0.610177L4.93333 13.8927C1.95 15.1214 0 18.0269 0 21.2479C0 54.2053 19.0833 76.9848 36.9167 84.3898C38.8833 85.2034 41.1 85.2034 43.0667 84.3898C57.35 78.4625 80 57.9908 80 21.2479C80 18.0269 78.05 15.1214 75.0833 13.8927ZM40.0167 74.0959L40 10.8377L69.3167 23.0079C68.7667 48.1451 55.6333 66.3588 40.0167 74.0959Z" fill="white"/>
</svg>
