<svg width="23" height="18" viewBox="0 0 23 18" fill="none" xmlns="http://www.w3.org/2000/svg">
<path d="M1.5 16.0608V15.2199C1.5 11.9692 4.34877 9.33398 7.86289 9.33398C11.377 9.33398 14.2258 11.9692 14.2258 15.2199V16.0608" stroke="#F5F5F5" stroke-width="2" stroke-linecap="round"/>
<path d="M12.4102 11.0128C12.4102 8.69091 14.445 6.80859 16.9551 6.80859C19.4652 6.80859 21.5 8.69091 21.5 11.0128V11.4333" stroke="#F5F5F5" stroke-width="2" stroke-linecap="round"/>
<path d="M7.86348 9.32931C9.87152 9.32931 11.4994 7.82344 11.4994 5.96593C11.4994 4.10838 9.87152 2.60254 7.86348 2.60254C5.8554 2.60254 4.22754 4.10838 4.22754 5.96593C4.22754 7.82344 5.8554 9.32931 7.86348 9.32931Z" stroke="#F5F5F5" stroke-width="2" stroke-linecap="round" stroke-linejoin="round"/>
<path d="M16.9535 6.80778C18.4596 6.80778 19.6805 5.67839 19.6805 4.28524C19.6805 2.89208 18.4596 1.7627 16.9535 1.7627C15.4474 1.7627 14.2266 2.89208 14.2266 4.28524C14.2266 5.67839 15.4474 6.80778 16.9535 6.80778Z" stroke="#F5F5F5" stroke-width="2" stroke-linecap="round" stroke-linejoin="round"/>
</svg>
