<svg width="36" height="36" viewBox="0 0 36 36" fill="none" xmlns="http://www.w3.org/2000/svg">
<path fill-rule="evenodd" clip-rule="evenodd" d="M33.6502 18C33.6502 26.8996 26.6877 34 18.2377 34C9.78764 34 2.8252 26.8996 2.8252 18C2.8252 9.10037 9.78764 2 18.2377 2C26.6877 2 33.6502 9.10037 33.6502 18ZM35.6502 18C35.6502 27.9411 27.8544 36 18.2377 36C8.62104 36 0.825195 27.9411 0.825195 18C0.825195 8.05887 8.62104 0 18.2377 0C27.8544 0 35.6502 8.05887 35.6502 18ZM25.9569 14.7721C25.9569 14.587 25.9569 14.4019 25.9442 14.2169C26.7437 13.6088 27.4417 12.8553 28 12.0093C27.264 12.3398 26.4645 12.5778 25.6396 12.6702C26.4898 12.1415 27.137 11.3087 27.4416 10.3173C26.6548 10.8064 25.7665 11.1633 24.8401 11.3483C24.0914 10.5155 23.0254 10 21.8452 10C19.5736 10 17.7462 11.9167 17.7462 14.2698C17.7462 14.6003 17.7843 14.9307 17.8477 15.248C14.4467 15.0629 11.4137 13.3708 9.3959 10.7799C9.04055 11.4144 8.83754 12.1415 8.83754 12.9346C8.83754 14.4152 9.56087 15.7238 10.6649 16.4906C9.99239 16.4642 9.35782 16.2659 8.81215 15.9486V16.0015C8.81215 18.0769 10.2208 19.7953 12.099 20.1919C11.7564 20.2844 11.3883 20.3373 11.0203 20.3373C10.7538 20.3373 10.5 20.3109 10.2462 20.2712C10.7665 21.9633 12.2767 23.1927 14.0787 23.2323C12.6701 24.3824 10.9061 25.0566 8.98985 25.0566C8.64719 25.0566 8.32996 25.0433 8 25.0037C9.81473 26.2198 11.9721 26.9205 14.2944 26.9205C21.8326 26.9205 25.9569 20.4166 25.9569 14.7721Z" fill="white"/>
</svg>
