<svg width="23" height="16" viewBox="0 0 23 16" fill="none" xmlns="http://www.w3.org/2000/svg">
<path d="M13.5029 7.5698L10.0029 9.41988V5.71973L13.5029 7.5698Z" fill="#F5F5F5" stroke="#F5F5F5" stroke-width="2" stroke-linecap="round" stroke-linejoin="round"/>
<path d="M1.5 8.22234V6.91331C1.5 4.235 1.5 2.89586 2.40549 2.03421C3.31099 1.17257 4.73656 1.13527 7.58769 1.06067C8.93873 1.02533 10.3188 1 11.5 1C12.6812 1 14.0613 1.02533 15.4123 1.06067C18.2634 1.13527 19.689 1.17257 20.5945 2.03421C21.5 2.89586 21.5 4.235 21.5 6.91331V8.22234C21.5 10.9006 21.5 12.2398 20.5945 13.1014C19.689 13.963 18.2635 14.0003 15.4124 14.075C14.0613 14.1103 12.6812 14.1356 11.5 14.1356C10.3188 14.1356 8.93867 14.1103 7.5876 14.075C4.73651 14.0003 3.31097 13.963 2.40548 13.1014C1.5 12.2398 1.5 10.9006 1.5 8.22234Z" stroke="#F5F5F5" stroke-width="2"/>
</svg>
