<svg width="267" height="101" viewBox="0 0 267 101" fill="none" xmlns="http://www.w3.org/2000/svg">
<path d="M42.7324 86.0547L39.5879 95.9863H36.7852L35.4863 90.6055L34.1289 95.9863H31.3555L28.1523 86.0547H31.9805L33.2891 90.918L34.5391 86.0547H37.4102L38.6504 90.918L40.0273 86.0547H42.7324ZM49.6648 96.1914C48.0177 96.1914 46.7091 95.6803 45.7391 94.6582C44.769 93.6296 44.284 92.4251 44.284 91.0449C44.284 89.5605 44.7885 88.3236 45.7977 87.334C46.8133 86.3444 48.1316 85.8496 49.7527 85.8496C51.3868 85.8496 52.6987 86.3379 53.6883 87.3145C54.6844 88.291 55.1824 89.515 55.1824 90.9863C55.1824 92.4707 54.6779 93.7109 53.6687 94.707C52.6661 95.6966 51.3315 96.1914 49.6648 96.1914ZM49.7234 93.8281C50.3289 93.8281 50.6967 93.5156 50.827 92.8906C50.9637 92.2591 51.032 91.6016 51.032 90.918C51.032 89.987 50.9376 89.3164 50.7488 88.9062C50.56 88.4961 50.2215 88.291 49.7332 88.291C49.284 88.291 48.9552 88.5026 48.7469 88.9258C48.5385 89.349 48.4344 90.0456 48.4344 91.0156C48.4344 92.1549 48.5418 92.9102 48.7566 93.2812C48.9715 93.6458 49.2937 93.8281 49.7234 93.8281ZM61.6363 95.9863H57.9059V86.0547H61.148V88.1055C61.5191 86.6146 62.3818 85.8691 63.7359 85.8691C63.8727 85.8691 64.0615 85.8822 64.3023 85.9082V89.375C64.0289 89.3099 63.7848 89.2773 63.5699 89.2773C62.2809 89.2773 61.6363 89.9967 61.6363 91.4355V95.9863ZM77.0062 86.0547L74.0082 89.4727L77.348 95.9863H73.3246L71.4594 92.0117L70.3949 93.252V95.9863H66.7426V82.6562H70.3949V88.0371C70.3949 88.1868 70.3852 88.7858 70.3656 89.834C70.6 89.502 70.8376 89.1992 71.0785 88.9258L73.5687 86.0547H77.0062ZM89.8262 88.584V95.9863H86.1543V88.584H84.6699V86.0547H86.1543C86.1543 85.2344 86.1901 84.6289 86.2617 84.2383C86.3333 83.8411 86.5124 83.4635 86.7988 83.1055C87.0853 82.7409 87.4694 82.4642 87.9512 82.2754C88.4329 82.0801 89.0807 81.9824 89.8945 81.9824C90.7669 81.9824 91.6035 82.0508 92.4043 82.1875V84.7363C91.7858 84.6517 91.3236 84.6094 91.0176 84.6094C90.7116 84.6094 90.4316 84.6712 90.1777 84.7949C89.9238 84.9186 89.7969 85.2214 89.7969 85.7031V86.0547H92.3359V88.584H89.8262ZM98.409 95.9863H94.6785V86.0547H97.9207V88.1055C98.2918 86.6146 99.1544 85.8691 100.509 85.8691C100.645 85.8691 100.834 85.8822 101.075 85.9082V89.375C100.802 89.3099 100.557 89.2773 100.343 89.2773C99.0535 89.2773 98.409 89.9967 98.409 91.4355V95.9863ZM108.369 96.1914C106.722 96.1914 105.413 95.6803 104.443 94.6582C103.473 93.6296 102.988 92.4251 102.988 91.0449C102.988 89.5605 103.492 88.3236 104.502 87.334C105.517 86.3444 106.836 85.8496 108.457 85.8496C110.091 85.8496 111.403 86.3379 112.392 87.3145C113.388 88.291 113.886 89.515 113.886 90.9863C113.886 92.4707 113.382 93.7109 112.373 94.707C111.37 95.6966 110.035 96.1914 108.369 96.1914ZM108.427 93.8281C109.033 93.8281 109.401 93.5156 109.531 92.8906C109.668 92.2591 109.736 91.6016 109.736 90.918C109.736 89.987 109.642 89.3164 109.453 88.9062C109.264 88.4961 108.925 88.291 108.437 88.291C107.988 88.291 107.659 88.5026 107.451 88.9258C107.242 89.349 107.138 90.0456 107.138 91.0156C107.138 92.1549 107.246 92.9102 107.461 93.2812C107.675 93.6458 107.998 93.8281 108.427 93.8281ZM131.659 95.9863H127.879V89.7754C127.879 89.3587 127.817 89.069 127.694 88.9062C127.577 88.737 127.365 88.6523 127.059 88.6523C126.33 88.6523 125.965 89.1829 125.965 90.2441V95.9863H122.225V89.7754C122.225 88.9811 121.919 88.584 121.307 88.584C120.676 88.584 120.36 88.9811 120.36 89.7754V95.9863H116.61V86.0547H120.106V87.3926C120.731 86.3639 121.639 85.8496 122.83 85.8496C124.113 85.8496 125.044 86.3639 125.623 87.3926C126.268 86.3639 127.258 85.8496 128.592 85.8496C129.23 85.8496 129.79 85.9831 130.272 86.25C130.76 86.5169 131.112 86.862 131.327 87.2852C131.548 87.7018 131.659 88.3496 131.659 89.2285V95.9863Z" fill="white"/>
<path fill-rule="evenodd" clip-rule="evenodd" d="M15.5748 91.4978C16.4637 90.5306 17 89.278 17 87.9096C17 84.847 14.3137 82.3643 11 82.3643C7.68629 82.3643 5 84.847 5 87.9096C5 89.278 5.53628 90.5306 6.4252 91.4978H6.41142L10.9996 96.3643L15.5879 91.4978H15.5748ZM12.0624 86.4331C12.0624 86.9754 11.5867 87.415 10.9999 87.415C10.4132 87.415 9.9375 86.9754 9.9375 86.4331C9.9375 85.8908 10.4132 85.4512 10.9999 85.4512C11.5867 85.4512 12.0624 85.8908 12.0624 86.4331Z" fill="#F1B620"/>
<path d="M168.051 95.9863H164.34C164.249 95.5632 164.203 95.1009 164.203 94.5996C163.5 95.6608 162.436 96.1914 161.01 96.1914C159.838 96.1914 158.959 95.8919 158.373 95.293C157.794 94.694 157.504 94.0072 157.504 93.2324C157.504 92.1842 157.979 91.3379 158.93 90.6934C159.887 90.0423 161.579 89.6517 164.008 89.5215V89.2969C164.008 88.8607 163.907 88.571 163.705 88.4277C163.51 88.2845 163.22 88.2129 162.836 88.2129C161.938 88.2129 161.436 88.5742 161.332 89.2969L157.777 88.9648C158.285 86.888 160.014 85.8496 162.963 85.8496C163.764 85.8496 164.499 85.931 165.17 86.0938C165.84 86.25 166.371 86.4974 166.762 86.8359C167.152 87.1745 167.413 87.5326 167.543 87.9102C167.68 88.2878 167.748 89.0137 167.748 90.0879V94.0527C167.748 94.8079 167.849 95.4525 168.051 95.9863ZM164.008 91.3379C162.348 91.5137 161.518 92.0443 161.518 92.9297C161.518 93.5286 161.846 93.8281 162.504 93.8281C162.921 93.8281 163.275 93.7044 163.568 93.457C163.861 93.2096 164.008 92.6628 164.008 91.8164V91.3379ZM180.677 95.9863H176.78V89.7363C176.78 89.222 176.699 88.8932 176.536 88.75C176.38 88.6068 176.181 88.5352 175.94 88.5352C175.231 88.5352 174.876 89.0299 174.876 90.0195V95.9863H170.979V86.0547H174.593V87.4609C175.126 86.3867 176.08 85.8496 177.454 85.8496C178.177 85.8496 178.785 85.9896 179.28 86.2695C179.781 86.543 180.139 86.901 180.354 87.3438C180.569 87.7799 180.677 88.5417 180.677 89.6289V95.9863ZM192.98 86.0547L189.084 96.8164C188.784 97.6302 188.354 98.265 187.795 98.7207C187.235 99.1829 186.372 99.4141 185.207 99.4141C184.927 99.4141 184.276 99.3848 183.254 99.3262V96.5625C183.761 96.6406 184.23 96.6797 184.66 96.6797C185.78 96.6797 186.339 96.4323 186.339 95.9375C186.339 95.7747 186.284 95.5501 186.173 95.2637L182.609 86.0547H186.779L188.42 91.3477L190.138 86.0547H192.98ZM206.602 82.6562V95.9863H202.51V90.8008H199.385V95.9863H195.293V82.6562H199.385V87.5586H202.51V82.6562H206.602ZM220.155 92.8027V95.9863H210.126V82.6562H220.155V85.7324H214.14V87.666H219.003V90.625H214.14V92.8027H220.155ZM234.852 95.9863H230.311L228.367 90.8887H227.078V95.9863H222.986V82.6562H229.949C231.486 82.6562 232.677 83.0176 233.523 83.7402C234.376 84.4564 234.803 85.4036 234.803 86.582C234.803 87.3503 234.646 88.0306 234.334 88.623C234.021 89.209 233.39 89.7266 232.439 90.1758L234.852 95.9863ZM227.078 88.0371H228.826C229.34 88.0371 229.754 87.9297 230.066 87.7148C230.379 87.5 230.535 87.1842 230.535 86.7676C230.535 85.9147 230.011 85.4883 228.963 85.4883H227.078V88.0371ZM248.024 92.8027V95.9863H237.995V82.6562H248.024V85.7324H242.009V87.666H246.872V90.625H242.009V92.8027H248.024Z" fill="#F1B620"/>
<path d="M45.5273 24.0098V52.8086C45.5273 56.4023 44.4434 59.332 42.2754 61.5977C40.1074 63.8633 37.3047 64.9961 33.8672 64.9961C29.7266 64.9961 26.5625 63.1113 24.375 59.3418C23.0273 61.373 21.582 62.8281 20.0391 63.707C18.4961 64.5664 16.5918 64.9961 14.3262 64.9961C10.7324 64.9961 7.97852 63.8633 6.06445 61.5977C4.15039 59.332 3.19336 56.0703 3.19336 51.8125V24.0098H15.0879V50.0254C15.0879 51.3145 15.1855 52.1641 15.3809 52.5742C15.5957 52.9844 16.0156 53.1895 16.6406 53.1895C17.8125 53.1895 18.3984 52.2031 18.3984 50.2305V24.0098H30.293V50.0254C30.293 51.2754 30.4004 52.1152 30.6152 52.5449C30.8301 52.9746 31.25 53.1895 31.875 53.1895C33.0469 53.1895 33.6328 52.1348 33.6328 50.0254V24.0098H45.5273ZM67.793 42.8477V53.5703H63.8379V64H51.9434V39.1855C51.9434 34.5176 53.3789 30.6602 56.25 27.6133C59.1406 24.5469 62.7734 23.0137 67.1484 23.0137C71.9727 23.0137 76.0059 25.0938 79.248 29.2539L69.4922 36.373C68.9453 34.8496 67.9785 34.0879 66.5918 34.0879C64.7559 34.0879 63.8379 35.3574 63.8379 37.8965V42.8477H67.793ZM123.164 24.0098V52.8086C123.164 56.4023 122.08 59.332 119.912 61.5977C117.744 63.8633 114.941 64.9961 111.504 64.9961C107.363 64.9961 104.199 63.1113 102.012 59.3418C100.664 61.373 99.2188 62.8281 97.6758 63.707C96.1328 64.5664 94.2285 64.9961 91.9629 64.9961C88.3691 64.9961 85.6152 63.8633 83.7012 61.5977C81.7871 59.332 80.8301 56.0703 80.8301 51.8125V24.0098H92.7246V50.0254C92.7246 51.3145 92.8223 52.1641 93.0176 52.5742C93.2324 52.9844 93.6523 53.1895 94.2773 53.1895C95.4492 53.1895 96.0352 52.2031 96.0352 50.2305V24.0098H107.93V50.0254C107.93 51.2754 108.037 52.1152 108.252 52.5449C108.467 52.9746 108.887 53.1895 109.512 53.1895C110.684 53.1895 111.27 52.1348 111.27 50.0254V24.0098H123.164Z" fill="white"/>
<path d="M143.711 62.3672V24.2422H147.5V62.3672H143.711ZM145.664 62.3672V58.7734H151.172V62.3672H145.664ZM145.664 27.8359V24.2422H151.172V27.8359H145.664ZM165.625 56V27.6016H169.609V56H165.625ZM177.93 56V43.7148C177.93 42.2826 177.559 41.1758 176.816 40.3945C176.087 39.6133 175.046 39.2227 173.691 39.2227C172.389 39.2227 171.38 39.5612 170.664 40.2383C169.961 40.9154 169.609 41.8724 169.609 43.1094L169.199 39.2031C169.824 38.0052 170.638 37.0807 171.641 36.4297C172.656 35.7656 173.776 35.4336 175 35.4336C177.201 35.4336 178.9 36.1562 180.098 37.6016C181.309 39.0339 181.914 41.0651 181.914 43.6953V56H177.93ZM196.27 56.293C193.444 56.293 191.257 55.5052 189.707 53.9297C188.158 52.3542 187.383 50.1146 187.383 47.2109V44.9258C187.383 41.9049 188.125 39.5677 189.609 37.9141C191.107 36.2604 193.21 35.4336 195.918 35.4336C198.47 35.4336 200.443 36.3711 201.836 38.2461C203.242 40.1211 203.945 42.7513 203.945 46.1367V47.4648H190.273V44.2617H200.156C200.039 42.6211 199.609 41.3385 198.867 40.4141C198.138 39.4896 197.155 39.0273 195.918 39.0273C194.421 39.0273 193.255 39.5221 192.422 40.5117C191.589 41.5013 191.172 42.901 191.172 44.7109V47.2891C191.172 48.9688 191.615 50.2578 192.5 51.1562C193.398 52.0547 194.655 52.5039 196.27 52.5039C197.077 52.5039 197.878 52.3411 198.672 52.0156C199.466 51.6901 200.176 51.2344 200.801 50.6484L203.418 53.2656C202.415 54.2292 201.289 54.9779 200.039 55.5117C198.789 56.0326 197.533 56.293 196.27 56.293ZM209.414 56V35.7266H213.398V56H209.414ZM220.566 40.5312C220.215 40.1016 219.772 39.776 219.238 39.5547C218.704 39.3333 218.086 39.2227 217.383 39.2227C216.12 39.2227 215.137 39.5742 214.434 40.2773C213.743 40.9674 213.398 41.931 213.398 43.168L212.988 39.2617C213.6 38.0638 214.401 37.1263 215.391 36.4492C216.393 35.7721 217.493 35.4336 218.691 35.4336C219.616 35.4336 220.449 35.5703 221.191 35.8438C221.947 36.1042 222.604 36.4948 223.164 37.0156L220.566 40.5312ZM234.395 56.293C231.569 56.293 229.382 55.5052 227.832 53.9297C226.283 52.3542 225.508 50.1146 225.508 47.2109V44.9258C225.508 41.9049 226.25 39.5677 227.734 37.9141C229.232 36.2604 231.335 35.4336 234.043 35.4336C236.595 35.4336 238.568 36.3711 239.961 38.2461C241.367 40.1211 242.07 42.7513 242.07 46.1367V47.4648H228.398V44.2617H238.281C238.164 42.6211 237.734 41.3385 236.992 40.4141C236.263 39.4896 235.28 39.0273 234.043 39.0273C232.546 39.0273 231.38 39.5221 230.547 40.5117C229.714 41.5013 229.297 42.901 229.297 44.7109V47.2891C229.297 48.9688 229.74 50.2578 230.625 51.1562C231.523 52.0547 232.78 52.5039 234.395 52.5039C235.202 52.5039 236.003 52.3411 236.797 52.0156C237.591 51.6901 238.301 51.2344 238.926 50.6484L241.543 53.2656C240.54 54.2292 239.414 54.9779 238.164 55.5117C236.914 56.0326 235.658 56.293 234.395 56.293ZM259.414 62.3672V24.2422H263.203V62.3672H259.414ZM255.742 62.3672V58.7734H261.25V62.3672H255.742ZM255.742 27.8359V24.2422H261.25V27.8359H255.742Z" fill="white"/>
</svg>
