<svg width="36" height="36" viewBox="0 0 36 36" fill="none" xmlns="http://www.w3.org/2000/svg">
<path fill-rule="evenodd" clip-rule="evenodd" d="M33.4754 18C33.4754 26.8996 26.5129 34 18.0629 34C9.61284 34 2.65039 26.8996 2.65039 18C2.65039 9.10037 9.61284 2 18.0629 2C26.5129 2 33.4754 9.10037 33.4754 18ZM35.4754 18C35.4754 27.9411 27.6796 36 18.0629 36C8.44623 36 0.650391 27.9411 0.650391 18C0.650391 8.05887 8.44623 0 18.0629 0C27.6796 0 35.4754 8.05887 35.4754 18ZM23.0055 15.6305L22.4268 19.25H19.3877V28H15.3118V19.25H12V15.6305H15.3118V12.8719C15.3118 9.73359 17.2592 8 20.2385 8C21.6655 8 23.158 8.24453 23.158 8.24453V11.3262H21.5133C19.8931 11.3262 19.3877 12.2914 19.3877 13.2816V15.6305H23.0055Z" fill="white"/>
</svg>
