<svg width="85" height="85" viewBox="0 0 85 85" fill="none" xmlns="http://www.w3.org/2000/svg">
<path fill-rule="evenodd" clip-rule="evenodd" d="M42.5 85C65.9721 85 85 65.9721 85 42.5C85 19.0279 65.9721 0 42.5 0C19.0279 0 0 19.0279 0 42.5C0 65.9721 19.0279 85 42.5 85ZM58.75 30.9318L55.9091 37.1818L53.0682 30.9318L46.8182 28.0909L53.0682 25.25L55.9091 19L58.75 25.25L65 28.0909L58.75 30.9318ZM33.1818 25.8182L38.8636 38.3182L51.3636 44L38.8636 49.6818L33.1818 62.1818L27.5 49.6818L15 44L27.5 38.3182L33.1818 25.8182ZM53.0682 57.0682L55.9091 50.8182L58.75 57.0682L65 59.9091L58.75 62.75L55.9091 69L53.0682 62.75L46.8182 59.9091L53.0682 57.0682Z" fill="#F1B620"/>
</svg>
