<svg width="26" height="25" viewBox="0 0 26 25" fill="none" xmlns="http://www.w3.org/2000/svg">
<path fill-rule="evenodd" clip-rule="evenodd" d="M21.7128 24C24.0815 24 26 21.8138 26 19.1147V15.226C24.4326 15.226 23.1703 13.7876 23.1703 12.0015C23.1703 10.2155 24.4326 8.77559 26 8.77559L25.9986 4.88528C25.9986 2.18617 24.0787 0 21.7114 0H4.28859C1.92126 0 0.00135586 2.18617 0.00135586 4.88528L0 8.90228C1.56738 8.90228 2.82968 10.2155 2.82968 12.0015C2.82968 13.7876 1.56738 15.226 0 15.226V19.1147C0 21.8138 1.91854 24 4.28723 24H21.7128Z" fill="#F1B620"/>
<path d="M14.8916 1.30176L14.8916 4.72912" stroke="#333333" stroke-width="1.5" stroke-linecap="round" stroke-linejoin="round"/>
<path d="M14.8916 20.4355L14.8916 23.3021" stroke="#333333" stroke-width="1.5" stroke-linecap="round" stroke-linejoin="round"/>
<path d="M14.8916 15.57L14.8916 8.74219" stroke="#333333" stroke-width="1.5" stroke-linecap="round" stroke-linejoin="round"/>
</svg>
