<svg width="275" height="52" viewBox="0 0 275 52" fill="none" xmlns="http://www.w3.org/2000/svg">
<g filter="url(#filter0_d_117_1090)">
<path d="M47.3873 1.02088V30.5363C47.3873 34.2195 46.2764 37.222 44.0545 39.544C41.8326 41.866 38.9601 43.027 35.4371 43.027C31.1934 43.027 27.9506 41.0954 25.7087 37.232C24.3275 39.3138 22.8462 40.8051 21.2649 41.7059C19.6835 42.5867 17.7318 43.027 15.4098 43.027C11.7267 43.027 8.90422 41.866 6.94253 39.544C4.98084 37.222 4 33.8792 4 29.5154V1.02088H16.1905V27.6838C16.1905 29.005 16.2906 29.8757 16.4908 30.2961C16.7109 30.7164 17.1413 30.9266 17.7819 30.9266C18.9829 30.9266 19.5834 29.9157 19.5834 27.894V1.02088H31.7739V27.6838C31.7739 28.9649 31.884 29.8257 32.1042 30.266C32.3244 30.7064 32.7548 30.9266 33.3953 30.9266C34.5963 30.9266 35.1969 29.8457 35.1969 27.6838V1.02088H47.3873Z" fill="black"/>
<path d="M70.207 20.3275V31.317H66.1535V42.0062H53.963V16.5743C53.963 11.7901 55.4343 7.83674 58.3768 4.71406C61.3394 1.57135 65.0626 0 69.5464 0C74.4907 0 78.6242 2.13183 81.9471 6.3955L71.9485 13.6918C71.388 12.1304 70.3972 11.3498 68.9759 11.3498C67.0943 11.3498 66.1535 12.6509 66.1535 15.2531V20.3275H70.207Z" fill="black"/>
<path d="M126.956 1.02088V30.5363C126.956 34.2195 125.845 37.222 123.623 39.544C121.401 41.866 118.529 43.027 115.006 43.027C110.762 43.027 107.519 41.0954 105.277 37.232C103.896 39.3138 102.415 40.8051 100.833 41.7059C99.252 42.5867 97.3003 43.027 94.9783 43.027C91.2951 43.027 88.4727 41.866 86.511 39.544C84.5493 37.222 83.5685 33.8792 83.5685 29.5154V1.02088H95.759V27.6838C95.759 29.005 95.8591 29.8757 96.0592 30.2961C96.2794 30.7164 96.7098 30.9266 97.3504 30.9266C98.5514 30.9266 99.1519 29.9157 99.1519 27.894V1.02088H111.342V27.6838C111.342 28.9649 111.452 29.8257 111.673 30.266C111.893 30.7064 112.323 30.9266 112.964 30.9266C114.165 30.9266 114.765 29.8457 114.765 27.6838V1.02088H126.956Z" fill="black"/>
<path d="M148.014 3.30859H151.897V42.3822H148.014V3.30859ZM150.015 38.6991H155.66V42.3822H150.015V38.6991ZM150.015 3.30859H155.66V6.99176H150.015V3.30859Z" fill="black"/>
<path d="M170.473 6.75156H174.557V35.8566H170.473V6.75156ZM183.084 23.2658C183.084 21.7978 182.704 20.6635 181.943 19.8628C181.182 19.0622 180.115 18.6618 178.74 18.6618C177.406 18.6618 176.371 19.0088 175.637 19.7027C174.917 20.3966 174.557 21.3775 174.557 22.6452L174.136 18.6418C174.777 17.4141 175.611 16.4666 176.638 15.7993C177.679 15.1188 178.827 14.7785 180.081 14.7785C182.337 14.7785 184.078 15.5191 185.306 17.0004C186.547 18.4683 187.167 20.5501 187.167 23.2458V35.8566H183.084V23.2658Z" fill="black"/>
<path d="M201.88 36.1569C199.958 36.1569 198.317 35.7966 196.956 35.0759C195.595 34.3553 194.554 33.3011 193.833 31.9132C193.126 30.512 192.772 28.8239 192.772 26.8489V24.5068C192.772 22.4517 193.112 20.6969 193.793 19.2423C194.487 17.7877 195.488 16.6801 196.796 15.9194C198.103 15.1588 199.678 14.7785 201.52 14.7785C203.255 14.7785 204.736 15.2122 205.964 16.0796C207.191 16.947 208.125 18.2014 208.766 19.8428C209.42 21.4842 209.747 23.4526 209.747 25.7479V27.1091H195.735V23.8263H205.863C205.743 22.1315 205.303 20.817 204.542 19.8829C203.795 18.9354 202.787 18.4616 201.52 18.4616C199.972 18.4616 198.771 18.9687 197.917 19.9829C197.076 20.9972 196.656 22.4317 196.656 24.2867V26.9289C196.656 28.6504 197.109 29.9715 198.017 30.8923C198.924 31.8131 200.212 32.2735 201.88 32.2735C202.707 32.2735 203.528 32.1067 204.342 31.7731C205.156 31.4395 205.883 30.9724 206.524 30.3719L209.206 33.0542C208.179 34.0417 207.024 34.809 205.743 35.3562C204.462 35.89 203.174 36.1569 201.88 36.1569Z" fill="black"/>
<path d="M215.352 15.0787H219.435V35.8566H215.352V15.0787ZM226.781 20.003C226.421 19.5626 225.967 19.229 225.42 19.0021C224.873 18.7752 224.239 18.6618 223.519 18.6618C222.224 18.6618 221.217 19.0221 220.496 19.7427C219.789 20.45 219.435 21.4375 219.435 22.7053L219.015 18.7018C219.655 17.4608 220.483 16.4999 221.497 15.8194C222.511 15.1254 223.632 14.7785 224.86 14.7785C225.807 14.7785 226.661 14.9186 227.422 15.1988C228.196 15.4657 228.87 15.8661 229.444 16.3999L226.781 20.003Z" fill="black"/>
<path d="M240.954 36.1569C239.032 36.1569 237.391 35.7966 236.029 35.0759C234.668 34.3553 233.627 33.3011 232.907 31.9132C232.199 30.512 231.846 28.8239 231.846 26.8489V24.5068C231.846 22.4517 232.186 20.6969 232.867 19.2423C233.561 17.7877 234.561 16.6801 235.869 15.9194C237.177 15.1588 238.752 14.7785 240.593 14.7785C242.328 14.7785 243.809 15.2122 245.037 16.0796C246.265 16.947 247.199 18.2014 247.84 19.8428C248.493 21.4842 248.82 23.4526 248.82 25.7479V27.1091H234.808V23.8263H244.937C244.817 22.1315 244.377 20.817 243.616 19.8829C242.869 18.9354 241.861 18.4616 240.593 18.4616C239.045 18.4616 237.844 18.9687 236.99 19.9829C236.15 20.9972 235.729 22.4317 235.729 24.2867V26.9289C235.729 28.6504 236.183 29.9715 237.09 30.8923C237.998 31.8131 239.286 32.2735 240.954 32.2735C241.781 32.2735 242.602 32.1067 243.416 31.7731C244.23 31.4395 244.957 30.9724 245.598 30.3719L248.28 33.0542C247.252 34.0417 246.098 34.809 244.817 35.3562C243.536 35.89 242.248 36.1569 240.954 36.1569Z" fill="black"/>
<path d="M266.596 3.30859H270.479V42.3822H266.596V3.30859ZM262.832 38.6991H268.477V42.3822H262.832V38.6991ZM262.832 3.30859H268.477V6.99176H262.832V3.30859Z" fill="black"/>
</g>
<defs>
<filter id="filter0_d_117_1090" x="0" y="0" width="274.479" height="51.0273" filterUnits="userSpaceOnUse" color-interpolation-filters="sRGB">
<feFlood flood-opacity="0" result="BackgroundImageFix"/>
<feColorMatrix in="SourceAlpha" type="matrix" values="0 0 0 0 0 0 0 0 0 0 0 0 0 0 0 0 0 0 127 0" result="hardAlpha"/>
<feOffset dy="4"/>
<feGaussianBlur stdDeviation="2"/>
<feComposite in2="hardAlpha" operator="out"/>
<feColorMatrix type="matrix" values="0 0 0 0 1 0 0 0 0 1 0 0 0 0 1 0 0 0 0.25 0"/>
<feBlend mode="normal" in2="BackgroundImageFix" result="effect1_dropShadow_117_1090"/>
<feBlend mode="normal" in="SourceGraphic" in2="effect1_dropShadow_117_1090" result="shape"/>
</filter>
</defs>
</svg>
