<svg width="13" height="15" viewBox="0 0 13 15" fill="none" xmlns="http://www.w3.org/2000/svg">
<path d="M6.25111 7.26826C6.95747 7.26826 7.64797 7.05513 8.23529 6.6558C8.82261 6.25648 9.28037 5.68891 9.55068 5.02486C9.82099 4.3608 9.89172 3.6301 9.75392 2.92515C9.61611 2.2202 9.27597 1.57266 8.77649 1.06441C8.27702 0.556171 7.64065 0.210054 6.94786 0.0698304C6.25507 -0.0703933 5.53698 0.0015746 4.88439 0.276633C4.23179 0.551692 3.67401 1.01749 3.28158 1.61512C2.88915 2.21275 2.67969 2.91537 2.67969 3.63413C2.67969 4.59796 3.05596 5.52232 3.72573 6.20385C4.39551 6.88538 5.30391 7.26826 6.25111 7.26826Z" fill="#4E4D4D"/>
<path d="M11.6071 14.9997C11.8439 14.9997 12.071 14.904 12.2385 14.7336C12.4059 14.5632 12.5 14.3321 12.5 14.0912C12.5 12.4045 11.8415 10.7868 10.6694 9.59417C9.49731 8.40149 7.9076 7.73145 6.25 7.73145C4.59239 7.73145 3.00268 8.40149 1.83058 9.59417C0.65848 10.7868 2.47002e-08 12.4045 0 14.0912C0 14.3321 0.0940687 14.5632 0.261512 14.7336C0.428955 14.904 0.656056 14.9997 0.892857 14.9997H11.6071Z" fill="#4E4D4D"/>
</svg>
