<svg width="16" height="18" viewBox="0 0 16 18" fill="none" xmlns="http://www.w3.org/2000/svg">
<path d="M13.3333 12.5161C12.6578 12.5161 12.0533 12.7721 11.5911 13.1732L5.25333 9.63153C5.29778 9.43524 5.33333 9.23896 5.33333 9.03414C5.33333 8.82932 5.29778 8.63303 5.25333 8.43675L11.52 4.92922C12 5.35592 12.6311 5.62048 13.3333 5.62048C14.8089 5.62048 16 4.47691 16 3.06024C16 1.64357 14.8089 0.5 13.3333 0.5C11.8578 0.5 10.6667 1.64357 10.6667 3.06024C10.6667 3.26506 10.7022 3.46135 10.7467 3.65763L4.48 7.16516C4 6.73845 3.36889 6.4739 2.66667 6.4739C1.19111 6.4739 0 7.61747 0 9.03414C0 10.4508 1.19111 11.5944 2.66667 11.5944C3.36889 11.5944 4 11.3298 4.48 10.9031L10.8089 14.4533C10.7644 14.6325 10.7378 14.8203 10.7378 15.008C10.7378 16.382 11.9022 17.5 13.3333 17.5C14.7644 17.5 15.9289 16.382 15.9289 15.008C15.9289 13.634 14.7644 12.5161 13.3333 12.5161Z" fill="#020202"/>
</svg>
