<svg width="16" height="16" viewBox="0 0 16 16" fill="none" xmlns="http://www.w3.org/2000/svg">
<path fill-rule="evenodd" clip-rule="evenodd" d="M8.61539 2.51966V3.88183H8.08791V5.20679H6.50159V2.05443C6.50159 1.46143 6.69304 0.971389 7.07595 0.584322C7.46146 0.194774 7.94595 0 8.52943 0C9.17281 0 9.7107 0.264248 10.1431 0.792742L8.842 1.69714C8.76907 1.50361 8.64013 1.40684 8.45519 1.40684C8.21034 1.40684 8.08791 1.56812 8.08791 1.89067V2.51966H8.61539ZM5.64591 0.126541V3.78507C5.64591 4.24161 5.50134 4.61379 5.21221 4.90161C4.92308 5.18942 4.54929 5.33333 4.09084 5.33333C3.53862 5.33333 3.11665 5.0939 2.82491 4.61503C2.64518 4.87307 2.45242 5.05792 2.24664 5.16957C2.04086 5.27875 1.78689 5.33333 1.48474 5.33333C1.00545 5.33333 0.638177 5.18942 0.382906 4.90161C0.127635 4.61379 0 4.19943 0 3.65853V0.126541H1.58632V3.4315C1.58632 3.59525 1.59935 3.70319 1.6254 3.75529C1.65405 3.8074 1.71005 3.83345 1.79341 3.83345C1.94969 3.83345 2.02784 3.70815 2.02784 3.45755V0.126541H3.61416V3.4315C3.61416 3.59029 3.62849 3.69698 3.65714 3.75157C3.6858 3.80616 3.7418 3.83345 3.82515 3.83345C3.98144 3.83345 4.05959 3.69947 4.05959 3.4315V0.126541H5.64591ZM16 3.78507V0.126541H14.4137V3.4315C14.4137 3.69947 14.3355 3.83345 14.1792 3.83345C14.0959 3.83345 14.0399 3.80616 14.0112 3.75157C13.9826 3.69698 13.9683 3.59029 13.9683 3.4315V0.126541H12.3819V3.45755C12.3819 3.70815 12.3038 3.83345 12.1475 3.83345C12.0641 3.83345 12.0081 3.8074 11.9795 3.75529C11.9534 3.70319 11.9404 3.59525 11.9404 3.4315V0.126541H10.3541V3.65853C10.3541 4.19943 10.4817 4.61379 10.737 4.90161C10.9923 5.18942 11.3595 5.33333 11.8388 5.33333C12.141 5.33333 12.395 5.27875 12.6007 5.16957C12.8065 5.05792 12.9993 4.87307 13.179 4.61503C13.4707 5.0939 13.8927 5.33333 14.4449 5.33333C14.9034 5.33333 15.2772 5.18942 15.5663 4.90161C15.8554 4.61379 16 4.24161 16 3.78507ZM8.61539 13.1863V14.5485H8.08791V15.8735H6.50159V12.7211C6.50159 12.1281 6.69304 11.6381 7.07595 11.251C7.46146 10.8614 7.94595 10.6667 8.52943 10.6667C9.17281 10.6667 9.7107 10.9309 10.1431 11.4594L8.842 12.3638C8.76907 12.1703 8.64013 12.0735 8.45519 12.0735C8.21034 12.0735 8.08791 12.2348 8.08791 12.5573V13.1863H8.61539ZM5.64591 10.7932V14.4517C5.64591 14.9083 5.50134 15.2805 5.21221 15.5683C4.92308 15.8561 4.54929 16 4.09084 16C3.53862 16 3.11665 15.7606 2.82491 15.2817C2.64518 15.5397 2.45242 15.7246 2.24664 15.8362C2.04086 15.9454 1.78689 16 1.48474 16C1.00545 16 0.638177 15.8561 0.382906 15.5683C0.127635 15.2805 0 14.8661 0 14.3252V10.7932H1.58632V14.0982C1.58632 14.2619 1.59935 14.3699 1.6254 14.422C1.65405 14.4741 1.71005 14.5001 1.79341 14.5001C1.94969 14.5001 2.02784 14.3748 2.02784 14.1242V10.7932H3.61416V14.0982C3.61416 14.257 3.62849 14.3637 3.65714 14.4182C3.6858 14.4728 3.7418 14.5001 3.82515 14.5001C3.98144 14.5001 4.05959 14.3661 4.05959 14.0982V10.7932H5.64591ZM16 14.4517V10.7932H14.4137V14.0982C14.4137 14.3661 14.3355 14.5001 14.1792 14.5001C14.0959 14.5001 14.0399 14.4728 14.0112 14.4182C13.9826 14.3637 13.9683 14.257 13.9683 14.0982V10.7932H12.3819V14.1242C12.3819 14.3748 12.3038 14.5001 12.1475 14.5001C12.0641 14.5001 12.0081 14.4741 11.9795 14.422C11.9534 14.3699 11.9404 14.2619 11.9404 14.0982V10.7932H10.3541V14.3252C10.3541 14.8661 10.4817 15.2805 10.737 15.5683C10.9923 15.8561 11.3595 16 11.8388 16C12.141 16 12.395 15.9454 12.6007 15.8362C12.8065 15.7246 12.9993 15.5397 13.179 15.2817C13.4707 15.7606 13.8927 16 14.4449 16C14.9034 16 15.2772 15.8561 15.5663 15.5683C15.8554 15.2805 16 14.9083 16 14.4517Z" fill="#D9D9D9"/>
<path d="M5.64591 5.45955V9.11807C5.64591 9.57461 5.50134 9.94679 5.21221 10.2346C4.92308 10.5224 4.54929 10.6663 4.09084 10.6663C3.53862 10.6663 3.11665 10.4269 2.82491 9.94803C2.64518 10.2061 2.45242 10.3909 2.24664 10.5026C2.04086 10.6118 1.78689 10.6663 1.48474 10.6663C1.00545 10.6663 0.638177 10.5224 0.382906 10.2346C0.127635 9.94679 0 9.53243 0 8.99153V5.45955H1.58632V8.7645C1.58632 8.92826 1.59935 9.03619 1.6254 9.0883C1.65405 9.14041 1.71005 9.16646 1.79341 9.16646C1.94969 9.16646 2.02784 9.04116 2.02784 8.79056V5.45955H3.61416V8.7645C3.61416 8.9233 3.62849 9.02999 3.65714 9.08458C3.6858 9.13916 3.7418 9.16646 3.82515 9.16646C3.98144 9.16646 4.05959 9.03247 4.05959 8.7645V5.45955H5.64591Z" fill="#333333"/>
<path d="M8.61539 7.85266V9.21484H8.08791V10.5398H6.50159V7.38744C6.50159 6.79443 6.69304 6.3044 7.07595 5.91733C7.46146 5.52778 7.94595 5.33301 8.52943 5.33301C9.17281 5.33301 9.71071 5.59726 10.1431 6.12575L8.842 7.03015C8.76907 6.83661 8.64013 6.73985 8.45519 6.73985C8.21034 6.73985 8.08791 6.90112 8.08791 7.22368V7.85266H8.61539Z" fill="#333333"/>
<path d="M16 5.45955V9.11807C16 9.57461 15.8554 9.94679 15.5663 10.2346C15.2772 10.5224 14.9034 10.6663 14.4449 10.6663C13.8927 10.6663 13.4707 10.4269 13.179 9.94803C12.9993 10.2061 12.8065 10.3909 12.6007 10.5026C12.395 10.6118 12.141 10.6663 11.8388 10.6663C11.3595 10.6663 10.9923 10.5224 10.737 10.2346C10.4817 9.94679 10.3541 9.53243 10.3541 8.99153V5.45955H11.9404V8.7645C11.9404 8.92826 11.9534 9.03619 11.9795 9.0883C12.0081 9.14041 12.0641 9.16646 12.1475 9.16646C12.3038 9.16646 12.3819 9.04116 12.3819 8.79056V5.45955H13.9683V8.7645C13.9683 8.9233 13.9826 9.02999 14.0112 9.08458C14.0399 9.13916 14.0959 9.16646 14.1792 9.16646C14.3355 9.16646 14.4137 9.03247 14.4137 8.7645V5.45955H16Z" fill="#333333"/>
</svg>
