<svg width="22" height="19" viewBox="0 0 22 19" fill="none" xmlns="http://www.w3.org/2000/svg">
<path d="M18.7778 17.8509H3.22222C1.99492 17.8509 1 16.9306 1 15.7953V6.5449C1 5.4096 1.99492 4.48926 3.22222 4.48926H18.7778C20.0051 4.48926 21 5.4096 21 6.5449V15.7953C21 16.9306 20.0051 17.8509 18.7778 17.8509Z" stroke="#F5F5F5" stroke-width="2"/>
<path d="M16.0018 11.689C15.6951 11.689 15.4463 11.4588 15.4463 11.175C15.4463 10.8913 15.6951 10.6611 16.0018 10.6611C16.3086 10.6611 16.5574 10.8913 16.5574 11.175C16.5574 11.4588 16.3086 11.689 16.0018 11.689Z" fill="#F5F5F5" stroke="#F5F5F5" stroke-width="2" stroke-linecap="round" stroke-linejoin="round"/>
<path d="M17.6667 4.4924V3.05676C17.6667 1.70615 16.2827 0.72253 14.8719 1.07053L2.64963 4.08548C1.67686 4.32544 1 5.1404 1 6.07171V6.54805" stroke="#F5F5F5" stroke-width="2"/>
</svg>
