<svg width="22" height="23" viewBox="0 0 22 23" fill="none" xmlns="http://www.w3.org/2000/svg">
<path d="M17.216 21.4448C19.0073 21.4448 20.4593 20.1016 20.4593 18.4446C20.4593 16.7875 19.0073 15.4443 17.216 15.4443C15.4247 15.4443 13.9727 16.7875 13.9727 18.4446C13.9727 20.1016 15.4247 21.4448 17.216 21.4448Z" stroke="#F5F5F5" stroke-width="2" stroke-linecap="round" stroke-linejoin="round"/>
<path d="M17.216 7.44575C19.0073 7.44575 20.4593 6.1025 20.4593 4.44553C20.4593 2.78856 19.0073 1.44531 17.216 1.44531C15.4247 1.44531 13.9727 2.78856 13.9727 4.44553C13.9727 6.1025 15.4247 7.44575 17.216 7.44575Z" stroke="#F5F5F5" stroke-width="2" stroke-linecap="round" stroke-linejoin="round"/>
<path d="M4.24334 14.4457C6.03459 14.4457 7.48668 13.1026 7.48668 11.4455C7.48668 9.78851 6.03459 8.44531 4.24334 8.44531C2.4521 8.44531 1 9.78851 1 11.4455C1 13.1026 2.4521 14.4457 4.24334 14.4457Z" stroke="#F5F5F5" stroke-width="2" stroke-linecap="round" stroke-linejoin="round"/>
<path d="M14.516 5.94238L6.94824 9.94267" stroke="#F5F5F5" stroke-width="2"/>
<path d="M6.94824 12.9424L14.516 16.9427" stroke="#F5F5F5" stroke-width="2"/>
</svg>
