<svg width="40" height="40" viewBox="0 0 40 40" fill="none" xmlns="http://www.w3.org/2000/svg">
<path d="M38.125 20H6.25V8.75C6.25 7.37148 7.37148 6.25 8.75 6.25C9.6368 6.25 10.4166 6.71445 10.8605 7.4125C9.57211 9.3818 9.71313 12.0669 11.3948 13.8996C11.0685 14.2678 11.0806 14.8305 11.4331 15.183L12.317 16.067C12.6831 16.433 13.2767 16.433 13.6429 16.067L21.0671 8.64281C21.4332 8.27672 21.4332 7.68313 21.0671 7.31695L20.1832 6.43305C19.8307 6.08055 19.268 6.06852 18.8998 6.39469C17.4975 5.10805 15.5955 4.72055 13.8859 5.1943C12.7563 3.56773 10.8759 2.5 8.75 2.5C5.30375 2.5 2.5 5.30375 2.5 8.75V20H1.875C0.839453 20 0 20.8395 0 21.875V23.125C0 24.1605 0.839453 25 1.875 25H2.5V27.5C2.5 29.7211 3.46578 31.7163 5 33.0896V35.625C5 36.6605 5.83945 37.5 6.875 37.5H8.125C9.16055 37.5 10 36.6605 10 35.625V35H30V35.625C30 36.6605 30.8395 37.5 31.875 37.5H33.125C34.1605 37.5 35 36.6605 35 35.625V33.0896C36.5342 31.7163 37.5 29.7211 37.5 27.5V25H38.125C39.1605 25 40 24.1605 40 23.125V21.875C40 20.8395 39.1605 20 38.125 20Z" fill="black"/>
</svg>
