<svg width="40" height="40" viewBox="0 0 40 40" fill="none" xmlns="http://www.w3.org/2000/svg">
<path d="M32.6458 18.346C32.6458 18.346 33.1736 20.8371 33.2917 21.3594H30.9722C31.2014 20.7634 32.0833 18.4464 32.0833 18.4464C32.0694 18.4665 32.3125 17.8371 32.4514 17.4487L32.6458 18.346ZM40 8.21429V31.7857C40 33.5603 38.5069 35 36.6667 35H3.33333C1.49306 35 0 33.5603 0 31.7857V8.21429C0 6.43973 1.49306 5 3.33333 5H36.6667C38.5069 5 40 6.43973 40 8.21429ZM10.5903 25.0357L14.9792 14.6429H12.0278L9.29861 21.7411L9 20.3013L8.02778 15.5201C7.86806 14.8571 7.375 14.6696 6.76389 14.6429H2.27083L2.22222 14.8504C3.31944 15.1183 4.29861 15.5067 5.15278 15.9955L7.63889 25.0357H10.5903ZM17.1458 25.0491L18.8958 14.6429H16.1042L14.3611 25.0491H17.1458ZM26.8611 21.6473C26.875 20.4621 26.125 19.558 24.5208 18.8147C23.5417 18.3393 22.9444 18.0179 22.9444 17.529C22.9583 17.0871 23.4514 16.6317 24.5486 16.6317C25.4583 16.6116 26.125 16.8192 26.625 17.0268L26.875 17.1406L27.2569 14.8906C26.7083 14.683 25.8333 14.4487 24.7569 14.4487C22 14.4487 20.0625 15.8683 20.0486 17.8906C20.0278 19.3839 21.4375 20.2143 22.4931 20.7165C23.5694 21.2254 23.9375 21.5603 23.9375 22.0089C23.9236 22.7054 23.0625 23.0268 22.2639 23.0268C21.1528 23.0268 20.5556 22.8594 19.6458 22.471L19.2778 22.3036L18.8889 24.6406C19.5417 24.9286 20.75 25.183 22 25.1964C24.9306 25.2031 26.8403 23.8036 26.8611 21.6473ZM36.6667 25.0491L34.4167 14.6429H32.2569C31.5903 14.6429 31.0833 14.8304 30.7986 15.5067L26.6528 25.0491H29.5833C29.5833 25.0491 30.0625 23.7634 30.1667 23.4888H33.75C33.8333 23.8571 34.0833 25.0491 34.0833 25.0491H36.6667Z" fill="black"/>
</svg>
