<svg width="20" height="17" viewBox="0 0 20 17" fill="none" xmlns="http://www.w3.org/2000/svg">
<path d="M11.1235 2.03184L11.1238 2.0316C12.9269 0.224305 15.8197 -0.0417547 17.7396 1.54731C19.9639 3.39156 20.0809 6.69987 18.0875 8.6982L18.0874 8.6983L10.5291 16.2798C10.5291 16.2798 10.529 16.2798 10.529 16.2799C10.2361 16.5734 9.76056 16.5734 9.46768 16.2799C9.46765 16.2798 9.46761 16.2798 9.46758 16.2798L1.90944 8.69852C-0.080359 6.70022 0.0365629 3.39177 2.26082 1.54744C4.18086 -0.0419323 7.07752 0.224537 8.87645 2.03125L8.87704 2.03184L9.64655 2.80213L10.0003 3.15623L10.354 2.80213L11.1235 2.03184Z" fill="black" stroke="black"/>
</svg>
