<svg width="25" height="21" viewBox="0 0 25 21" fill="none" xmlns="http://www.w3.org/2000/svg">
<path fill-rule="evenodd" clip-rule="evenodd" d="M24.9333 16.7254C24.9333 19.0871 23.0935 21 20.822 21H15.3951C15.5857 20.864 15.71 20.641 15.71 20.3891V17.8809C15.71 17.4666 15.3742 17.1309 14.96 17.1309C14.5457 17.1309 14.21 17.4666 14.21 17.8809V20.3891C14.21 20.641 14.3342 20.864 14.5248 21H4.11135C1.83983 21 0 19.0871 0 16.7254C0 15.6137 0.688613 14.5888 1.37442 13.568C1.84796 12.8632 2.32016 12.1604 2.56342 11.4324C2.66074 11.1411 2.71359 10.8279 2.71359 10.5014C2.71359 10.2373 2.67904 9.98509 2.61435 9.74821C2.39414 8.94178 1.87879 8.17473 1.36342 7.40766C0.682168 6.39368 0.000891454 5.37967 0.00130024 4.27462C0.00130024 1.9129 1.84244 0 4.11265 0H20.8207C23.0909 0 24.932 1.9129 24.932 4.27462C24.9325 5.3867 24.2439 6.41249 23.5582 7.43406C23.0848 8.13929 22.6128 8.8425 22.3697 9.57069C22.2725 9.8619 22.2197 10.175 22.2197 10.5014C22.2197 10.8279 22.2726 11.1411 22.3699 11.4324C22.6132 12.1604 23.0854 12.8632 23.5589 13.568C24.2447 14.5888 24.9333 15.6137 24.9333 16.7254ZM15.71 1.13867C15.71 0.724458 15.3742 0.388672 14.96 0.388672C14.5457 0.388672 14.21 0.724458 14.21 1.13867V4.13762C14.21 4.55183 14.5457 4.88762 14.96 4.88762C15.3742 4.88762 15.71 4.55183 15.71 4.13762V1.13867ZM15.71 7.64844C15.71 7.23422 15.3742 6.89844 14.96 6.89844C14.5457 6.89844 14.21 7.23422 14.21 7.64844V13.6228C14.21 14.037 14.5457 14.3728 14.96 14.3728C15.3742 14.3728 15.71 14.037 15.71 13.6228V7.64844Z" fill="black"/>
</svg>
