<svg width="17" height="17" viewBox="0 0 17 17" fill="none" xmlns="http://www.w3.org/2000/svg">
<path d="M14.1667 12.0161C13.4489 12.0161 12.8067 12.2721 12.3156 12.6732L5.58167 9.13153C5.62889 8.93524 5.66667 8.73896 5.66667 8.53414C5.66667 8.32932 5.62889 8.13303 5.58167 7.93675L12.24 4.42922C12.75 4.85592 13.4206 5.12048 14.1667 5.12048C15.7344 5.12048 17 3.97691 17 2.56024C17 1.14357 15.7344 0 14.1667 0C12.5989 0 11.3333 1.14357 11.3333 2.56024C11.3333 2.76506 11.3711 2.96135 11.4183 3.15763L4.76 6.66516C4.25 6.23845 3.57944 5.9739 2.83333 5.9739C1.26556 5.9739 0 7.11747 0 8.53414C0 9.9508 1.26556 11.0944 2.83333 11.0944C3.57944 11.0944 4.25 10.8298 4.76 10.4031L11.4844 13.9533C11.4372 14.1325 11.4089 14.3203 11.4089 14.508C11.4089 15.882 12.6461 17 14.1667 17C15.6872 17 16.9244 15.882 16.9244 14.508C16.9244 13.134 15.6872 12.0161 14.1667 12.0161Z" fill="#020202"/>
</svg>
