<svg width="150" height="25" viewBox="0 0 150 25" fill="none" xmlns="http://www.w3.org/2000/svg">
<path d="M24.2282 0.570076V17.052C24.2282 19.1087 23.6079 20.7854 22.3671 22.0821C21.1264 23.3787 19.5223 24.027 17.555 24.027C15.1853 24.027 13.3744 22.9484 12.1225 20.791C11.3512 21.9535 10.5241 22.7863 9.64099 23.2893C8.75793 23.7811 7.66808 24.027 6.37144 24.027C4.31469 24.027 2.7386 23.3787 1.64316 22.0821C0.54772 20.7854 0 18.9187 0 16.4819V0.570076H6.80738V15.4591C6.80738 16.1969 6.86327 16.6831 6.97505 16.9178C7.09801 17.1526 7.33833 17.27 7.69603 17.27C8.36671 17.27 8.70205 16.7055 8.70205 15.5765V0.570076H15.5094V15.4591C15.5094 16.1745 15.5709 16.6552 15.6939 16.9011C15.8168 17.147 16.0571 17.27 16.4148 17.27C17.0855 17.27 17.4209 16.6663 17.4209 15.4591V0.570076H24.2282Z" fill="white"/>
<path d="M36.9711 11.3512V17.4879H34.7076V23.457H27.9002V9.25535C27.9002 6.58382 28.7218 4.37617 30.3649 2.63241C32.0193 0.87747 34.0984 0 36.6022 0C39.3632 0 41.6715 1.19045 43.527 3.57136L37.9436 7.64573C37.6306 6.77385 37.0773 6.33791 36.2837 6.33791C35.2329 6.33791 34.7076 7.06447 34.7076 8.51761V11.3512H36.9711Z" fill="white"/>
<path d="M68.6606 0.570076V17.052C68.6606 19.1087 68.0403 20.7854 66.7995 22.0821C65.5588 23.3787 63.9547 24.027 61.9874 24.027C59.6177 24.027 57.8068 22.9484 56.5549 20.791C55.7836 21.9535 54.9565 22.7863 54.0734 23.2893C53.1903 23.7811 52.1005 24.027 50.8038 24.027C48.7471 24.027 47.171 23.3787 46.0756 22.0821C44.9801 20.7854 44.4324 18.9187 44.4324 16.4819V0.570076H51.2398V15.4591C51.2398 16.1969 51.2957 16.6831 51.4075 16.9178C51.5304 17.1526 51.7707 17.27 52.1284 17.27C52.7991 17.27 53.1345 16.7055 53.1345 15.5765V0.570076H59.9418V15.4591C59.9418 16.1745 60.0033 16.6552 60.1263 16.9011C60.2492 17.147 60.4896 17.27 60.8472 17.27C61.5179 17.27 61.8533 16.6663 61.8533 15.4591V0.570076H68.6606Z" fill="white"/>
<path d="M80.6606 2.20752H82.8292V24.0269H80.6606V2.20752ZM81.7784 21.9702H84.9306V24.0269H81.7784V21.9702ZM81.7784 2.20752H84.9306V4.26426H81.7784V2.20752Z" fill="white"/>
<path d="M93.2023 4.13013H95.4826V20.3829H93.2023V4.13013ZM100.244 13.3519C100.244 12.5322 100.032 11.8988 99.6073 11.4517C99.1825 11.0046 98.5864 10.781 97.8188 10.781C97.0736 10.781 96.4961 10.9748 96.0862 11.3623C95.6838 11.7498 95.4826 12.2975 95.4826 13.0054L95.2479 10.7698C95.6056 10.0843 96.0713 9.55517 96.6451 9.18257C97.2264 8.80252 97.8673 8.61249 98.5677 8.61249C99.8271 8.61249 100.8 9.02608 101.485 9.85325C102.178 10.673 102.525 11.8355 102.525 13.3408V20.3829H100.244V13.3519Z" fill="white"/>
<path d="M110.741 20.5506C109.667 20.5506 108.751 20.3494 107.991 19.9469C107.231 19.5445 106.649 18.9558 106.247 18.1808C105.852 17.3984 105.655 16.4557 105.655 15.3528V14.045C105.655 12.8974 105.845 11.9174 106.225 11.1052C106.612 10.2929 107.171 9.6744 107.901 9.24964C108.632 8.82487 109.511 8.61249 110.539 8.61249C111.508 8.61249 112.335 8.85468 113.021 9.33906C113.706 9.82344 114.228 10.5239 114.586 11.4405C114.951 12.3571 115.133 13.4563 115.133 14.738V15.4981H107.309V13.6649H112.965C112.898 12.7185 112.652 11.9845 112.227 11.4629C111.81 10.9338 111.247 10.6692 110.539 10.6692C109.675 10.6692 109.004 10.9524 108.527 11.5188C108.058 12.0851 107.823 12.8862 107.823 13.922V15.3975C107.823 16.3588 108.076 17.0966 108.583 17.6108C109.09 18.1249 109.809 18.382 110.741 18.382C111.203 18.382 111.661 18.2889 112.115 18.1026C112.57 17.9163 112.976 17.6555 113.334 17.3201L114.832 18.818C114.258 19.3694 113.613 19.7979 112.898 20.1034C112.182 20.4015 111.463 20.5506 110.741 20.5506Z" fill="white"/>
<path d="M118.263 8.78016H120.544V20.3829H118.263V8.78016ZM124.646 11.5299C124.445 11.284 124.191 11.0977 123.886 10.971C123.58 10.8444 123.226 10.781 122.824 10.781C122.101 10.781 121.538 10.9822 121.136 11.3846C120.741 11.7796 120.544 12.331 120.544 13.039L120.309 10.8034C120.667 10.1103 121.129 9.5738 121.695 9.19375C122.261 8.80624 122.887 8.61249 123.573 8.61249C124.102 8.61249 124.579 8.69074 125.004 8.84723C125.436 8.99627 125.812 9.21983 126.133 9.51791L124.646 11.5299Z" fill="white"/>
<path d="M132.56 20.5506C131.487 20.5506 130.57 20.3494 129.81 19.9469C129.05 19.5445 128.469 18.9558 128.066 18.1808C127.671 17.3984 127.474 16.4557 127.474 15.3528V14.045C127.474 12.8974 127.664 11.9174 128.044 11.1052C128.432 10.2929 128.99 9.6744 129.721 9.24964C130.451 8.82487 131.33 8.61249 132.359 8.61249C133.327 8.61249 134.155 8.85468 134.84 9.33906C135.526 9.82344 136.047 10.5239 136.405 11.4405C136.77 12.3571 136.953 13.4563 136.953 14.738V15.4981H129.128V13.6649H134.784C134.717 12.7185 134.471 11.9845 134.047 11.4629C133.629 10.9338 133.067 10.6692 132.359 10.6692C131.494 10.6692 130.824 10.9524 130.347 11.5188C129.877 12.0851 129.642 12.8862 129.642 13.922V15.3975C129.642 16.3588 129.896 17.0966 130.403 17.6108C130.909 18.1249 131.628 18.382 132.56 18.382C133.022 18.382 133.48 18.2889 133.935 18.1026C134.389 17.9163 134.796 17.6555 135.153 17.3201L136.651 18.818C136.077 19.3694 135.433 19.7979 134.717 20.1034C134.002 20.4015 133.283 20.5506 132.56 20.5506Z" fill="white"/>
<path d="M146.879 2.20752H149.047V24.0269H146.879V2.20752ZM144.777 21.9702H147.93V24.0269H144.777V21.9702ZM144.777 2.20752H147.93V4.26426H144.777V2.20752Z" fill="white"/>
</svg>
