<svg width="40" height="40" viewBox="0 0 40 40" fill="none" xmlns="http://www.w3.org/2000/svg">
<path d="M39.6818 13.2286C28.6087 2.25513 11.3868 2.25915 0.318072 13.2286C-0.0981782 13.6411 -0.106303 14.3395 0.296197 14.7674L2.4362 17.0422C2.81995 17.4507 3.43745 17.4594 3.8362 17.0676C12.9562 8.11585 27.0425 8.11384 36.1643 17.0676C36.5631 17.4594 37.1806 17.45 37.5643 17.0422L39.7043 14.7674C40.1062 14.3395 40.0981 13.6411 39.6818 13.2286ZM20 26.4286C17.7906 26.4286 16 28.3471 16 30.7143C16 33.0815 17.7906 35 20 35C22.2093 35 24 33.0815 24 30.7143C24 28.3471 22.2093 26.4286 20 26.4286ZM32.6668 20.831C25.4631 14.0054 14.5287 14.0127 7.33308 20.831C6.90183 21.2395 6.88808 21.9487 7.29745 22.3812L9.44995 24.6574C9.82495 25.0538 10.4287 25.0806 10.8281 24.7109C16.075 19.8513 23.9368 19.8621 29.1712 24.7109C29.5706 25.0806 30.1743 25.0545 30.5493 24.6574L32.7018 22.3812C33.1118 21.9487 33.0975 21.2388 32.6668 20.831Z" fill="black"/>
</svg>
