<svg width="40" height="40" viewBox="0 0 40 40" fill="none" xmlns="http://www.w3.org/2000/svg">
<path d="M12.0024 27.9981H24.0014C27.3136 27.9981 30.0009 25.3108 30.0009 21.9986H32.0007C36.4128 21.9986 40 18.4114 40 13.9993C40 9.58719 36.4128 6 32.0007 6H7.50284C6.67166 6 6.00297 6.66869 6.00297 7.49987V21.9986C6.00297 25.3108 8.69024 27.9981 12.0024 27.9981ZM32.0007 9.99965C34.2068 9.99965 36.0004 11.7932 36.0004 13.9993C36.0004 16.2054 34.2068 17.999 32.0007 17.999H30.0009V9.99965H32.0007ZM34.9817 33.9976H3.02198C0.0472407 33.9976 -0.790186 29.9979 0.772177 29.9979H37.2252C38.7876 29.9979 37.9627 33.9976 34.9817 33.9976Z" fill="black"/>
</svg>
