<svg width="149" height="25" viewBox="0 0 149 25" fill="none" xmlns="http://www.w3.org/2000/svg">
<path d="M24.2282 0.570076V17.052C24.2282 19.1087 23.6079 20.7854 22.3671 22.0821C21.1264 23.3787 19.5223 24.027 17.555 24.027C15.1853 24.027 13.3744 22.9484 12.1225 20.791C11.3512 21.9535 10.5241 22.7863 9.64099 23.2893C8.75793 23.7811 7.66808 24.027 6.37144 24.027C4.31469 24.027 2.7386 23.3787 1.64316 22.0821C0.54772 20.7854 0 18.9187 0 16.4819V0.570076H6.80738V15.4591C6.80738 16.1969 6.86327 16.6831 6.97505 16.9178C7.09801 17.1526 7.33833 17.27 7.69603 17.27C8.36671 17.27 8.70205 16.7055 8.70205 15.5765V0.570076H15.5094V15.4591C15.5094 16.1745 15.5709 16.6552 15.6939 16.9011C15.8168 17.147 16.0571 17.27 16.4148 17.27C17.0855 17.27 17.4209 16.6663 17.4209 15.4591V0.570076H24.2282Z" fill="black"/>
<path d="M36.9711 11.3512V17.4879H34.7076V23.457H27.9002V9.25535C27.9002 6.58382 28.7218 4.37617 30.3649 2.63241C32.0193 0.87747 34.0984 0 36.6022 0C39.3632 0 41.6715 1.19045 43.527 3.57136L37.9436 7.64573C37.6306 6.77385 37.0773 6.33791 36.2837 6.33791C35.2329 6.33791 34.7076 7.06447 34.7076 8.51761V11.3512H36.9711Z" fill="black"/>
<path d="M68.6606 0.570076V17.052C68.6606 19.1087 68.0403 20.7854 66.7995 22.0821C65.5588 23.3787 63.9547 24.027 61.9874 24.027C59.6177 24.027 57.8068 22.9484 56.5549 20.791C55.7836 21.9535 54.9565 22.7863 54.0734 23.2893C53.1903 23.7811 52.1005 24.027 50.8038 24.027C48.7471 24.027 47.171 23.3787 46.0756 22.0821C44.9801 20.7854 44.4324 18.9187 44.4324 16.4819V0.570076H51.2398V15.4591C51.2398 16.1969 51.2957 16.6831 51.4075 16.9178C51.5304 17.1526 51.7707 17.27 52.1284 17.27C52.7991 17.27 53.1345 16.7055 53.1345 15.5765V0.570076H59.9418V15.4591C59.9418 16.1745 60.0033 16.6552 60.1263 16.9011C60.2492 17.147 60.4896 17.27 60.8472 17.27C61.5179 17.27 61.8533 16.6663 61.8533 15.4591V0.570076H68.6606Z" fill="black"/>
<path d="M80.4199 1.84766H82.5884V23.667H80.4199V1.84766ZM81.5377 21.6103H84.6899V23.667H81.5377V21.6103ZM81.5377 1.84766H84.6899V3.9044H81.5377V1.84766Z" fill="black"/>
<path d="M92.9616 3.77027H95.2419V20.023H92.9616V3.77027ZM100.004 12.9921C100.004 12.1724 99.7913 11.539 99.3666 11.0918C98.9418 10.6447 98.3456 10.4212 97.5781 10.4212C96.8329 10.4212 96.2554 10.6149 95.8455 11.0024C95.4431 11.3899 95.2419 11.9376 95.2419 12.6456L95.0072 10.41C95.3649 9.72439 95.8306 9.1953 96.4044 8.82271C96.9857 8.44266 97.6265 8.25263 98.327 8.25263C99.5864 8.25263 100.559 8.66621 101.244 9.49338C101.938 10.3131 102.284 11.4756 102.284 12.9809V20.023H100.004V12.9921Z" fill="black"/>
<path d="M110.5 20.1907C109.427 20.1907 108.51 19.9895 107.75 19.5871C106.99 19.1847 106.409 18.596 106.006 17.821C105.611 17.0385 105.414 16.0958 105.414 14.9929V13.6851C105.414 12.5375 105.604 11.5576 105.984 10.7453C106.371 9.93305 106.93 9.31454 107.661 8.88977C108.391 8.46501 109.27 8.25263 110.299 8.25263C111.267 8.25263 112.095 8.49482 112.78 8.9792C113.466 9.46358 113.987 10.1641 114.345 11.0807C114.71 11.9972 114.893 13.0964 114.893 14.3782V15.1383H107.068V13.3051H112.724C112.657 12.3587 112.411 11.6246 111.986 11.103C111.569 10.5739 111.007 10.3094 110.299 10.3094C109.434 10.3094 108.764 10.5926 108.287 11.1589C107.817 11.7253 107.582 12.5263 107.582 13.5622V15.0377C107.582 15.999 107.836 16.7367 108.342 17.2509C108.849 17.7651 109.568 18.0222 110.5 18.0222C110.962 18.0222 111.42 17.929 111.875 17.7427C112.329 17.5564 112.735 17.2956 113.093 16.9603L114.591 18.4581C114.017 19.0096 113.373 19.438 112.657 19.7436C111.942 20.0417 111.223 20.1907 110.5 20.1907Z" fill="black"/>
<path d="M118.023 8.4203H120.303V20.023H118.023V8.4203ZM124.405 11.1701C124.204 10.9242 123.951 10.7379 123.645 10.6112C123.34 10.4845 122.986 10.4212 122.583 10.4212C121.86 10.4212 121.298 10.6224 120.895 11.0248C120.5 11.4197 120.303 11.9712 120.303 12.6791L120.068 10.4435C120.426 9.75048 120.888 9.21393 121.454 8.83388C122.021 8.44638 122.647 8.25263 123.332 8.25263C123.861 8.25263 124.338 8.33088 124.763 8.48737C125.195 8.63641 125.571 8.85997 125.892 9.15804L124.405 11.1701Z" fill="black"/>
<path d="M132.319 20.1907C131.246 20.1907 130.33 19.9895 129.569 19.5871C128.809 19.1847 128.228 18.596 127.826 17.821C127.431 17.0385 127.233 16.0958 127.233 14.9929V13.6851C127.233 12.5375 127.423 11.5576 127.803 10.7453C128.191 9.93305 128.75 9.31454 129.48 8.88977C130.21 8.46501 131.09 8.25263 132.118 8.25263C133.087 8.25263 133.914 8.49482 134.6 8.9792C135.285 9.46358 135.807 10.1641 136.164 11.0807C136.53 11.9972 136.712 13.0964 136.712 14.3782V15.1383H128.888V13.3051H134.544C134.477 12.3587 134.231 11.6246 133.806 11.103C133.389 10.5739 132.826 10.3094 132.118 10.3094C131.254 10.3094 130.583 10.5926 130.106 11.1589C129.636 11.7253 129.402 12.5263 129.402 13.5622V15.0377C129.402 15.999 129.655 16.7367 130.162 17.2509C130.669 17.7651 131.388 18.0222 132.319 18.0222C132.781 18.0222 133.24 17.929 133.694 17.7427C134.149 17.5564 134.555 17.2956 134.912 16.9603L136.41 18.4581C135.837 19.0096 135.192 19.438 134.477 19.7436C133.761 20.0417 133.042 20.1907 132.319 20.1907Z" fill="black"/>
<path d="M146.638 1.84766H148.807V23.667H146.638V1.84766ZM144.537 21.6103H147.689V23.667H144.537V21.6103ZM144.537 1.84766H147.689V3.9044H144.537V1.84766Z" fill="black"/>
</svg>
