<svg width="144" height="47" viewBox="0 0 144 47" fill="none" xmlns="http://www.w3.org/2000/svg">
<path d="M0.453125 46.6406V0.890625H5V46.6406H0.453125ZM2.79688 46.6406V42.3281H9.40625V46.6406H2.79688ZM2.79688 5.20312V0.890625H9.40625V5.20312H2.79688ZM26.75 39V4.92188H31.5312V39H26.75ZM41.5156 39V24.2578C41.5156 22.5391 41.0703 21.2109 40.1797 20.2734C39.3047 19.3359 38.0547 18.8672 36.4297 18.8672C34.8672 18.8672 33.6562 19.2734 32.7969 20.0859C31.9531 20.8984 31.5312 22.0469 31.5312 23.5312L31.0391 18.8438C31.7891 17.4062 32.7656 16.2969 33.9688 15.5156C35.1875 14.7188 36.5312 14.3203 38 14.3203C40.6406 14.3203 42.6797 15.1875 44.1172 16.9219C45.5703 18.6406 46.2969 21.0781 46.2969 24.2344V39H41.5156ZM63.5234 39.3516C60.1328 39.3516 57.5078 38.4062 55.6484 36.5156C53.7891 34.625 52.8594 31.9375 52.8594 28.4531V25.7109C52.8594 22.0859 53.75 19.2812 55.5312 17.2969C57.3281 15.3125 59.8516 14.3203 63.1016 14.3203C66.1641 14.3203 68.5312 15.4453 70.2031 17.6953C71.8906 19.9453 72.7344 23.1016 72.7344 27.1641V28.7578H56.3281V24.9141H68.1875C68.0469 22.9453 67.5312 21.4062 66.6406 20.2969C65.7656 19.1875 64.5859 18.6328 63.1016 18.6328C61.3047 18.6328 59.9062 19.2266 58.9062 20.4141C57.9062 21.6016 57.4062 23.2812 57.4062 25.4531V28.5469C57.4062 30.5625 57.9375 32.1094 59 33.1875C60.0781 34.2656 61.5859 34.8047 63.5234 34.8047C64.4922 34.8047 65.4531 34.6094 66.4062 34.2188C67.3594 33.8281 68.2109 33.2812 68.9609 32.5781L72.1016 35.7188C70.8984 36.875 69.5469 37.7734 68.0469 38.4141C66.5469 39.0391 65.0391 39.3516 63.5234 39.3516ZM79.2969 39V14.6719H84.0781V39H79.2969ZM92.6797 20.4375C92.2578 19.9219 91.7266 19.5312 91.0859 19.2656C90.4453 19 89.7031 18.8672 88.8594 18.8672C87.3438 18.8672 86.1641 19.2891 85.3203 20.1328C84.4922 20.9609 84.0781 22.1172 84.0781 23.6016L83.5859 18.9141C84.3203 17.4766 85.2812 16.3516 86.4688 15.5391C87.6719 14.7266 88.9922 14.3203 90.4297 14.3203C91.5391 14.3203 92.5391 14.4844 93.4297 14.8125C94.3359 15.125 95.125 15.5938 95.7969 16.2188L92.6797 20.4375ZM109.273 39.3516C105.883 39.3516 103.258 38.4062 101.398 36.5156C99.5391 34.625 98.6094 31.9375 98.6094 28.4531V25.7109C98.6094 22.0859 99.5 19.2812 101.281 17.2969C103.078 15.3125 105.602 14.3203 108.852 14.3203C111.914 14.3203 114.281 15.4453 115.953 17.6953C117.641 19.9453 118.484 23.1016 118.484 27.1641V28.7578H102.078V24.9141H113.938C113.797 22.9453 113.281 21.4062 112.391 20.2969C111.516 19.1875 110.336 18.6328 108.852 18.6328C107.055 18.6328 105.656 19.2266 104.656 20.4141C103.656 21.6016 103.156 23.2812 103.156 25.4531V28.5469C103.156 30.5625 103.688 32.1094 104.75 33.1875C105.828 34.2656 107.336 34.8047 109.273 34.8047C110.242 34.8047 111.203 34.6094 112.156 34.2188C113.109 33.8281 113.961 33.2812 114.711 32.5781L117.852 35.7188C116.648 36.875 115.297 37.7734 113.797 38.4141C112.297 39.0391 110.789 39.3516 109.273 39.3516ZM139.297 46.6406V0.890625H143.844V46.6406H139.297ZM134.891 46.6406V42.3281H141.5V46.6406H134.891ZM134.891 5.20312V0.890625H141.5V5.20312H134.891Z" fill="white"/>
</svg>
